<svg width="32" height="32" viewBox="0 0 32 32" fill="none" xmlns="http://www.w3.org/2000/svg">
<g clip-path="url(#clip0_178_111)">
<path d="M13.8195 22.4949C10.175 22.0524 7.60729 19.4306 7.60729 16.0344C7.60729 14.6541 8.10387 13.1631 8.93233 12.1699C8.57342 11.2591 8.62873 9.32565 9.04296 8.52546C10.1467 8.38779 11.6377 8.96796 12.5215 9.76692C13.57 9.43627 14.675 9.27033 16.0283 9.27033C17.3804 9.27033 18.4854 9.43627 19.4786 9.73988C20.3341 8.96673 21.8533 8.38779 22.9571 8.52546C23.3443 9.27033 23.3996 11.2038 23.0395 12.1417C23.9245 13.1914 24.3928 14.6 24.3928 16.0344C24.3928 19.4306 21.8251 21.9984 18.1265 22.4679C19.0644 23.0751 19.6998 24.4001 19.6998 25.9182V28.7895C19.6998 29.618 20.3894 30.0875 21.2179 29.7556C26.2156 27.8504 30.1355 22.8539 30.1355 16.6699C30.1355 8.8561 23.7856 2.47919 15.973 2.47919C8.15796 2.47919 1.86462 8.8561 1.86462 16.6699C1.86462 22.7985 5.75739 27.8799 11.0035 29.7839C11.7484 30.0605 12.4662 29.5626 12.4662 28.8178V26.6077C12.0461 26.7833 11.5964 26.8767 11.1411 26.8831C9.31829 26.8831 8.24154 25.8899 7.46962 24.04C7.16602 23.2939 6.83415 22.8526 6.19867 22.7703C5.86679 22.742 5.7574 22.6043 5.7574 22.4384C5.7574 22.1065 6.31052 21.8595 6.86119 21.8595C7.6626 21.8595 8.35217 22.356 9.07 23.3775C9.62312 24.1777 10.2021 24.5366 10.8929 24.5366C11.5824 24.5366 12.0237 24.2883 12.6592 23.6528C13.1287 23.1845 13.4876 22.7715 13.8195 22.4949Z" fill="black"/>
</g>
<defs>
<clipPath id="clip0_178_111">
<rect width="29.5" height="29.5" fill="white" transform="translate(1.25 1.25)"/>
</clipPath>
</defs>
</svg>
