<svg width="32" height="32" viewBox="0 0 32 32" fill="none" xmlns="http://www.w3.org/2000/svg">
<path d="M16 2.375C23.5249 2.375 29.625 8.47512 29.625 16C29.625 23.5249 23.5249 29.625 16 29.625C8.47512 29.625 2.375 23.5249 2.375 16C2.375 8.47512 8.47512 2.375 16 2.375ZM12.583 21.125C12.8181 22.3687 13.1335 23.4826 13.5088 24.4209C13.9298 25.4735 14.4032 26.2503 14.8711 26.7451C15.3367 27.2374 15.7187 27.375 16 27.375C16.2813 27.375 16.6633 27.2374 17.1289 26.7451C17.5968 26.2503 18.0702 25.4735 18.4912 24.4209C18.8665 23.4826 19.1819 22.3687 19.417 21.125H12.583ZM5.8457 21.125C7.14079 23.6859 9.37325 25.6917 12.0947 26.6865C11.8491 26.2432 11.6229 25.7642 11.4199 25.2568C10.9423 24.0628 10.5605 22.6631 10.2959 21.125H5.8457ZM21.7041 21.125C21.4395 22.6631 21.0577 24.0628 20.5801 25.2568C20.3771 25.7644 20.15 26.2431 19.9043 26.6865C22.6262 25.6918 24.8591 23.6862 26.1543 21.125H21.7041ZM21.9951 13.125C22.0793 14.0536 22.125 15.0158 22.125 16C22.125 16.9842 22.0793 17.9464 21.9951 18.875H27.0078C27.247 17.9566 27.375 16.9933 27.375 16C27.375 15.0067 27.247 14.0434 27.0078 13.125H21.9951ZM12.2637 13.125C12.1738 14.0418 12.125 15.0045 12.125 16C12.125 16.9955 12.1738 17.9582 12.2637 18.875H19.7363C19.8262 17.9582 19.875 16.9955 19.875 16C19.875 15.0045 19.8262 14.0418 19.7363 13.125H12.2637ZM4.99219 13.125C4.753 14.0434 4.625 15.0067 4.625 16C4.625 16.9933 4.753 17.9566 4.99219 18.875H10.0049C9.92073 17.9464 9.875 16.9842 9.875 16C9.875 15.0158 9.92073 14.0536 10.0049 13.125H4.99219ZM19.9043 5.3125C20.1502 5.75613 20.3769 6.23533 20.5801 6.74316C21.0577 7.93723 21.4395 9.33692 21.7041 10.875H26.1543C24.859 8.3137 22.6263 6.30716 19.9043 5.3125ZM16 4.625C15.7187 4.625 15.3367 4.76265 14.8711 5.25488C14.4032 5.74965 13.9298 6.52652 13.5088 7.5791C13.1335 8.51741 12.8181 9.63133 12.583 10.875H19.417C19.1819 9.63133 18.8665 8.51741 18.4912 7.5791C18.0702 6.52652 17.5968 5.74965 17.1289 5.25488C16.6633 4.76265 16.2813 4.625 16 4.625ZM12.0947 5.3125C9.37311 6.30726 7.14084 8.31397 5.8457 10.875H10.2959C10.5605 9.33692 10.9423 7.93723 11.4199 6.74316C11.623 6.23549 11.8489 5.75602 12.0947 5.3125Z" fill="black"/>
</svg>
