<svg width="32" height="32" viewBox="0 0 32 32" fill="none" xmlns="http://www.w3.org/2000/svg">
<path d="M25 3.875C27.8305 3.875 30.125 6.16954 30.125 9V23C30.125 25.8305 27.8305 28.125 25 28.125H7C4.16954 28.125 1.875 25.8305 1.875 23V9C1.875 6.16954 4.16954 3.875 7 3.875H25ZM16.7959 18.7959L16 19.5908L15.2041 18.7959L4.33398 7.92578C4.20007 8.25781 4.125 8.62002 4.125 9V23C4.125 24.5878 5.41218 25.875 7 25.875H25C26.5878 25.875 27.875 24.5878 27.875 23V9C27.875 8.61989 27.799 8.2579 27.665 7.92578L16.7959 18.7959ZM7 6.125C6.62002 6.125 6.25781 6.20007 5.92578 6.33398L16 16.4082L26.0732 6.33398C25.7414 6.20029 25.3797 6.125 25 6.125H7Z" fill="black"/>
</svg>
