<svg width="72" height="102" viewBox="0 0 72 102" fill="none" xmlns="http://www.w3.org/2000/svg">
<g clip-path="url(#clip0_2331_81073)">
<rect width="12" height="12" rx="6" fill="white" style="mix-blend-mode:darken"/>
<circle cx="6" cy="6" r="6" fill="#FF9900"/>
<g filter="url(#filter0_f_2331_81073)">
<circle cx="6" cy="4.5" r="3" fill="#FFFF00"/>
</g>
</g>
<g clip-path="url(#clip1_2331_81073)">
<rect x="15" width="12" height="12" rx="6" fill="white" style="mix-blend-mode:darken"/>
<circle cx="21" cy="6" r="6" fill="#FF9900"/>
<g filter="url(#filter1_f_2331_81073)">
<circle cx="21" cy="4.5" r="3" fill="#FFFF00"/>
</g>
</g>
<g clip-path="url(#clip2_2331_81073)">
<rect x="30" width="12" height="12" rx="6" fill="white" style="mix-blend-mode:darken"/>
<circle cx="36" cy="6" r="6" fill="#FF9900"/>
<g filter="url(#filter2_f_2331_81073)">
<circle cx="36" cy="4.5" r="3" fill="#FFFF00"/>
</g>
</g>
<g clip-path="url(#clip3_2331_81073)">
<rect x="45" width="12" height="12" rx="6" fill="white" style="mix-blend-mode:darken"/>
<circle cx="51" cy="6" r="6" fill="#FF9900"/>
<g filter="url(#filter3_f_2331_81073)">
<circle cx="51" cy="4.5" r="3" fill="#FFFF00"/>
</g>
</g>
<g clip-path="url(#clip4_2331_81073)">
<rect x="60" width="12" height="12" rx="6" fill="white" style="mix-blend-mode:darken"/>
<circle cx="66" cy="6" r="6" fill="#FF9900"/>
<g filter="url(#filter4_f_2331_81073)">
<circle cx="66" cy="4.5" r="3" fill="#FFFF00"/>
</g>
</g>
<g clip-path="url(#clip5_2331_81073)">
<rect x="60" y="15" width="12" height="12" rx="6" fill="white" style="mix-blend-mode:darken"/>
<circle cx="66" cy="21" r="6" fill="#FF9900"/>
<g filter="url(#filter5_f_2331_81073)">
<circle cx="66" cy="19.5" r="3" fill="#FFFF00"/>
</g>
</g>
<g clip-path="url(#clip6_2331_81073)">
<rect x="45" y="30" width="12" height="12" rx="6" fill="white" style="mix-blend-mode:darken"/>
<circle cx="51" cy="36" r="6" fill="#FF9900"/>
<g filter="url(#filter6_f_2331_81073)">
<circle cx="51" cy="34.5" r="3" fill="#FFFF00"/>
</g>
</g>
<g clip-path="url(#clip7_2331_81073)">
<rect x="30" y="45" width="12" height="12" rx="6" fill="white" style="mix-blend-mode:darken"/>
<circle cx="36" cy="51" r="6" fill="#FF9900"/>
<g filter="url(#filter7_f_2331_81073)">
<circle cx="36" cy="49.5" r="3" fill="#FFFF00"/>
</g>
</g>
<g clip-path="url(#clip8_2331_81073)">
<rect x="15" y="60" width="12" height="12" rx="6" fill="white" style="mix-blend-mode:darken"/>
<circle cx="21" cy="66" r="6" fill="#FF9900"/>
<g filter="url(#filter8_f_2331_81073)">
<circle cx="21" cy="64.5" r="3" fill="#FFFF00"/>
</g>
</g>
<g clip-path="url(#clip9_2331_81073)">
<rect x="15" y="75" width="12" height="12" rx="6" fill="white" style="mix-blend-mode:darken"/>
<circle cx="21" cy="81" r="6" fill="#FF9900"/>
<g filter="url(#filter9_f_2331_81073)">
<circle cx="21" cy="79.5" r="3" fill="#FFFF00"/>
</g>
</g>
<g clip-path="url(#clip10_2331_81073)">
<rect x="15" y="90" width="12" height="12" rx="6" fill="white" style="mix-blend-mode:darken"/>
<circle cx="21" cy="96" r="6" fill="#FF9900"/>
<g filter="url(#filter10_f_2331_81073)">
<circle cx="21" cy="94.5" r="3" fill="#FFFF00"/>
</g>
</g>
<defs>
<filter id="filter0_f_2331_81073" x="-3" y="-4.5" width="18" height="18" filterUnits="userSpaceOnUse" color-interpolation-filters="sRGB">
<feFlood flood-opacity="0" result="BackgroundImageFix"/>
<feBlend mode="normal" in="SourceGraphic" in2="BackgroundImageFix" result="shape"/>
<feGaussianBlur stdDeviation="3" result="effect1_foregroundBlur_2331_81073"/>
</filter>
<filter id="filter1_f_2331_81073" x="12" y="-4.5" width="18" height="18" filterUnits="userSpaceOnUse" color-interpolation-filters="sRGB">
<feFlood flood-opacity="0" result="BackgroundImageFix"/>
<feBlend mode="normal" in="SourceGraphic" in2="BackgroundImageFix" result="shape"/>
<feGaussianBlur stdDeviation="3" result="effect1_foregroundBlur_2331_81073"/>
</filter>
<filter id="filter2_f_2331_81073" x="27" y="-4.5" width="18" height="18" filterUnits="userSpaceOnUse" color-interpolation-filters="sRGB">
<feFlood flood-opacity="0" result="BackgroundImageFix"/>
<feBlend mode="normal" in="SourceGraphic" in2="BackgroundImageFix" result="shape"/>
<feGaussianBlur stdDeviation="3" result="effect1_foregroundBlur_2331_81073"/>
</filter>
<filter id="filter3_f_2331_81073" x="42" y="-4.5" width="18" height="18" filterUnits="userSpaceOnUse" color-interpolation-filters="sRGB">
<feFlood flood-opacity="0" result="BackgroundImageFix"/>
<feBlend mode="normal" in="SourceGraphic" in2="BackgroundImageFix" result="shape"/>
<feGaussianBlur stdDeviation="3" result="effect1_foregroundBlur_2331_81073"/>
</filter>
<filter id="filter4_f_2331_81073" x="57" y="-4.5" width="18" height="18" filterUnits="userSpaceOnUse" color-interpolation-filters="sRGB">
<feFlood flood-opacity="0" result="BackgroundImageFix"/>
<feBlend mode="normal" in="SourceGraphic" in2="BackgroundImageFix" result="shape"/>
<feGaussianBlur stdDeviation="3" result="effect1_foregroundBlur_2331_81073"/>
</filter>
<filter id="filter5_f_2331_81073" x="57" y="10.5" width="18" height="18" filterUnits="userSpaceOnUse" color-interpolation-filters="sRGB">
<feFlood flood-opacity="0" result="BackgroundImageFix"/>
<feBlend mode="normal" in="SourceGraphic" in2="BackgroundImageFix" result="shape"/>
<feGaussianBlur stdDeviation="3" result="effect1_foregroundBlur_2331_81073"/>
</filter>
<filter id="filter6_f_2331_81073" x="42" y="25.5" width="18" height="18" filterUnits="userSpaceOnUse" color-interpolation-filters="sRGB">
<feFlood flood-opacity="0" result="BackgroundImageFix"/>
<feBlend mode="normal" in="SourceGraphic" in2="BackgroundImageFix" result="shape"/>
<feGaussianBlur stdDeviation="3" result="effect1_foregroundBlur_2331_81073"/>
</filter>
<filter id="filter7_f_2331_81073" x="27" y="40.5" width="18" height="18" filterUnits="userSpaceOnUse" color-interpolation-filters="sRGB">
<feFlood flood-opacity="0" result="BackgroundImageFix"/>
<feBlend mode="normal" in="SourceGraphic" in2="BackgroundImageFix" result="shape"/>
<feGaussianBlur stdDeviation="3" result="effect1_foregroundBlur_2331_81073"/>
</filter>
<filter id="filter8_f_2331_81073" x="12" y="55.5" width="18" height="18" filterUnits="userSpaceOnUse" color-interpolation-filters="sRGB">
<feFlood flood-opacity="0" result="BackgroundImageFix"/>
<feBlend mode="normal" in="SourceGraphic" in2="BackgroundImageFix" result="shape"/>
<feGaussianBlur stdDeviation="3" result="effect1_foregroundBlur_2331_81073"/>
</filter>
<filter id="filter9_f_2331_81073" x="12" y="70.5" width="18" height="18" filterUnits="userSpaceOnUse" color-interpolation-filters="sRGB">
<feFlood flood-opacity="0" result="BackgroundImageFix"/>
<feBlend mode="normal" in="SourceGraphic" in2="BackgroundImageFix" result="shape"/>
<feGaussianBlur stdDeviation="3" result="effect1_foregroundBlur_2331_81073"/>
</filter>
<filter id="filter10_f_2331_81073" x="12" y="85.5" width="18" height="18" filterUnits="userSpaceOnUse" color-interpolation-filters="sRGB">
<feFlood flood-opacity="0" result="BackgroundImageFix"/>
<feBlend mode="normal" in="SourceGraphic" in2="BackgroundImageFix" result="shape"/>
<feGaussianBlur stdDeviation="3" result="effect1_foregroundBlur_2331_81073"/>
</filter>
<clipPath id="clip0_2331_81073">
<rect width="12" height="12" rx="6" fill="white"/>
</clipPath>
<clipPath id="clip1_2331_81073">
<rect x="15" width="12" height="12" rx="6" fill="white"/>
</clipPath>
<clipPath id="clip2_2331_81073">
<rect x="30" width="12" height="12" rx="6" fill="white"/>
</clipPath>
<clipPath id="clip3_2331_81073">
<rect x="45" width="12" height="12" rx="6" fill="white"/>
</clipPath>
<clipPath id="clip4_2331_81073">
<rect x="60" width="12" height="12" rx="6" fill="white"/>
</clipPath>
<clipPath id="clip5_2331_81073">
<rect x="60" y="15" width="12" height="12" rx="6" fill="white"/>
</clipPath>
<clipPath id="clip6_2331_81073">
<rect x="45" y="30" width="12" height="12" rx="6" fill="white"/>
</clipPath>
<clipPath id="clip7_2331_81073">
<rect x="30" y="45" width="12" height="12" rx="6" fill="white"/>
</clipPath>
<clipPath id="clip8_2331_81073">
<rect x="15" y="60" width="12" height="12" rx="6" fill="white"/>
</clipPath>
<clipPath id="clip9_2331_81073">
<rect x="15" y="75" width="12" height="12" rx="6" fill="white"/>
</clipPath>
<clipPath id="clip10_2331_81073">
<rect x="15" y="90" width="12" height="12" rx="6" fill="white"/>
</clipPath>
</defs>
</svg>
