<svg width="133" height="102" viewBox="0 0 133 102" fill="none" xmlns="http://www.w3.org/2000/svg">
<g clip-path="url(#clip0_2331_81479)">
<rect x="60.4443" width="12" height="12" rx="6" fill="white" style="mix-blend-mode:darken"/>
<circle cx="66.4443" cy="6" r="6" fill="#FF9900"/>
<g filter="url(#filter0_f_2331_81479)">
<circle cx="66.4443" cy="4.5" r="3" fill="#FFFF00"/>
</g>
</g>
<g clip-path="url(#clip1_2331_81479)">
<rect x="120.889" width="12" height="12" rx="6" fill="white" style="mix-blend-mode:darken"/>
<circle cx="126.889" cy="6" r="6" fill="#FF9900"/>
<g filter="url(#filter1_f_2331_81479)">
<circle cx="126.889" cy="4.5" r="3" fill="#FFFF00"/>
</g>
</g>
<g clip-path="url(#clip2_2331_81479)">
<rect x="60.4443" y="15" width="12" height="12" rx="6" fill="white" style="mix-blend-mode:darken"/>
<circle cx="66.4443" cy="21" r="6" fill="#FF9900"/>
<g filter="url(#filter2_f_2331_81479)">
<circle cx="66.4443" cy="19.5" r="3" fill="#FFFF00"/>
</g>
</g>
<g clip-path="url(#clip3_2331_81479)">
<rect x="105.778" y="15" width="12" height="12" rx="6" fill="white" style="mix-blend-mode:darken"/>
<circle cx="111.778" cy="21" r="6" fill="#FF9900"/>
<g filter="url(#filter3_f_2331_81479)">
<circle cx="111.778" cy="19.5" r="3" fill="#FFFF00"/>
</g>
</g>
<g clip-path="url(#clip4_2331_81479)">
<rect x="60.4443" y="30" width="12" height="12" rx="6" fill="white" style="mix-blend-mode:darken"/>
<circle cx="66.4443" cy="36" r="6" fill="#FF9900"/>
<g filter="url(#filter4_f_2331_81479)">
<circle cx="66.4443" cy="34.5" r="3" fill="#FFFF00"/>
</g>
</g>
<g clip-path="url(#clip5_2331_81479)">
<rect x="90.6667" y="30" width="12" height="12" rx="6" fill="white" style="mix-blend-mode:darken"/>
<circle cx="96.6667" cy="36" r="6" fill="#FF9900"/>
<g filter="url(#filter5_f_2331_81479)">
<circle cx="96.6667" cy="34.5" r="3" fill="#FFFF00"/>
</g>
</g>
<g clip-path="url(#clip6_2331_81479)">
<rect x="60.4443" y="45" width="12" height="12" rx="6" fill="white" style="mix-blend-mode:darken"/>
<circle cx="66.4443" cy="51" r="6" fill="#FF9900"/>
<g filter="url(#filter6_f_2331_81479)">
<circle cx="66.4443" cy="49.5" r="3" fill="#FFFF00"/>
</g>
</g>
<g clip-path="url(#clip7_2331_81479)">
<rect x="75.5557" y="45" width="12" height="12" rx="6" fill="white" style="mix-blend-mode:darken"/>
<circle cx="81.5557" cy="51" r="6" fill="#FF9900"/>
<g filter="url(#filter7_f_2331_81479)">
<circle cx="81.5557" cy="49.5" r="3" fill="#FFFF00"/>
</g>
</g>
<g clip-path="url(#clip8_2331_81479)">
<rect x="60.4443" y="60" width="12" height="12" rx="6" fill="white" style="mix-blend-mode:darken"/>
<circle cx="66.4443" cy="66" r="6" fill="#FF9900"/>
<g filter="url(#filter8_f_2331_81479)">
<circle cx="66.4443" cy="64.5" r="3" fill="#FFFF00"/>
</g>
</g>
<g clip-path="url(#clip9_2331_81479)">
<rect x="90.6667" y="60" width="12" height="12" rx="6" fill="white" style="mix-blend-mode:darken"/>
<circle cx="96.6667" cy="66" r="6" fill="#FF9900"/>
<g filter="url(#filter9_f_2331_81479)">
<circle cx="96.6667" cy="64.5" r="3" fill="#FFFF00"/>
</g>
</g>
<g clip-path="url(#clip10_2331_81479)">
<rect x="60.4443" y="75" width="12" height="12" rx="6" fill="white" style="mix-blend-mode:darken"/>
<circle cx="66.4443" cy="81" r="6" fill="#FF9900"/>
<g filter="url(#filter10_f_2331_81479)">
<circle cx="66.4443" cy="79.5" r="3" fill="#FFFF00"/>
</g>
</g>
<g clip-path="url(#clip11_2331_81479)">
<rect x="105.778" y="75" width="12" height="12" rx="6" fill="white" style="mix-blend-mode:darken"/>
<circle cx="111.778" cy="81" r="6" fill="#FF9900"/>
<g filter="url(#filter11_f_2331_81479)">
<circle cx="111.778" cy="79.5" r="3" fill="#FFFF00"/>
</g>
</g>
<g clip-path="url(#clip12_2331_81479)">
<rect x="60.4443" y="90" width="12" height="12" rx="6" fill="white" style="mix-blend-mode:darken"/>
<circle cx="66.4443" cy="96" r="6" fill="#FF9900"/>
<g filter="url(#filter12_f_2331_81479)">
<circle cx="66.4443" cy="94.5" r="3" fill="#FFFF00"/>
</g>
</g>
<g clip-path="url(#clip13_2331_81479)">
<rect x="120.889" y="90" width="12" height="12" rx="6" fill="white" style="mix-blend-mode:darken"/>
<circle cx="126.889" cy="96" r="6" fill="#FF9900"/>
<g filter="url(#filter13_f_2331_81479)">
<circle cx="126.889" cy="94.5" r="3" fill="#FFFF00"/>
</g>
</g>
<g clip-path="url(#clip14_2331_81479)">
<rect y="15" width="12" height="12" rx="6" fill="white" style="mix-blend-mode:darken"/>
<circle cx="6" cy="21" r="6" fill="#FF9900"/>
<g filter="url(#filter14_f_2331_81479)">
<circle cx="6" cy="19.5" r="3" fill="#FFFF00"/>
</g>
</g>
<g clip-path="url(#clip15_2331_81479)">
<rect x="15.1111" width="12" height="12" rx="6" fill="white" style="mix-blend-mode:darken"/>
<circle cx="21.1111" cy="6" r="6" fill="#FF9900"/>
<g filter="url(#filter15_f_2331_81479)">
<circle cx="21.1111" cy="4.5" r="3" fill="#FFFF00"/>
</g>
</g>
<g clip-path="url(#clip16_2331_81479)">
<rect x="15.1111" y="30" width="12" height="12" rx="6" fill="white" style="mix-blend-mode:darken"/>
<circle cx="21.1111" cy="36" r="6" fill="#FF9900"/>
<g filter="url(#filter16_f_2331_81479)">
<circle cx="21.1111" cy="34.5" r="3" fill="#FFFF00"/>
</g>
</g>
<g clip-path="url(#clip17_2331_81479)">
<rect x="30.2222" y="15" width="12" height="12" rx="6" fill="white" style="mix-blend-mode:darken"/>
<circle cx="36.2222" cy="21" r="6" fill="#FF9900"/>
<g filter="url(#filter17_f_2331_81479)">
<circle cx="36.2222" cy="19.5" r="3" fill="#FFFF00"/>
</g>
</g>
<defs>
<filter id="filter0_f_2331_81479" x="57.4443" y="-4.5" width="18" height="18" filterUnits="userSpaceOnUse" color-interpolation-filters="sRGB">
<feFlood flood-opacity="0" result="BackgroundImageFix"/>
<feBlend mode="normal" in="SourceGraphic" in2="BackgroundImageFix" result="shape"/>
<feGaussianBlur stdDeviation="3" result="effect1_foregroundBlur_2331_81479"/>
</filter>
<filter id="filter1_f_2331_81479" x="117.889" y="-4.5" width="18" height="18" filterUnits="userSpaceOnUse" color-interpolation-filters="sRGB">
<feFlood flood-opacity="0" result="BackgroundImageFix"/>
<feBlend mode="normal" in="SourceGraphic" in2="BackgroundImageFix" result="shape"/>
<feGaussianBlur stdDeviation="3" result="effect1_foregroundBlur_2331_81479"/>
</filter>
<filter id="filter2_f_2331_81479" x="57.4443" y="10.5" width="18" height="18" filterUnits="userSpaceOnUse" color-interpolation-filters="sRGB">
<feFlood flood-opacity="0" result="BackgroundImageFix"/>
<feBlend mode="normal" in="SourceGraphic" in2="BackgroundImageFix" result="shape"/>
<feGaussianBlur stdDeviation="3" result="effect1_foregroundBlur_2331_81479"/>
</filter>
<filter id="filter3_f_2331_81479" x="102.778" y="10.5" width="18" height="18" filterUnits="userSpaceOnUse" color-interpolation-filters="sRGB">
<feFlood flood-opacity="0" result="BackgroundImageFix"/>
<feBlend mode="normal" in="SourceGraphic" in2="BackgroundImageFix" result="shape"/>
<feGaussianBlur stdDeviation="3" result="effect1_foregroundBlur_2331_81479"/>
</filter>
<filter id="filter4_f_2331_81479" x="57.4443" y="25.5" width="18" height="18" filterUnits="userSpaceOnUse" color-interpolation-filters="sRGB">
<feFlood flood-opacity="0" result="BackgroundImageFix"/>
<feBlend mode="normal" in="SourceGraphic" in2="BackgroundImageFix" result="shape"/>
<feGaussianBlur stdDeviation="3" result="effect1_foregroundBlur_2331_81479"/>
</filter>
<filter id="filter5_f_2331_81479" x="87.6667" y="25.5" width="18" height="18" filterUnits="userSpaceOnUse" color-interpolation-filters="sRGB">
<feFlood flood-opacity="0" result="BackgroundImageFix"/>
<feBlend mode="normal" in="SourceGraphic" in2="BackgroundImageFix" result="shape"/>
<feGaussianBlur stdDeviation="3" result="effect1_foregroundBlur_2331_81479"/>
</filter>
<filter id="filter6_f_2331_81479" x="57.4443" y="40.5" width="18" height="18" filterUnits="userSpaceOnUse" color-interpolation-filters="sRGB">
<feFlood flood-opacity="0" result="BackgroundImageFix"/>
<feBlend mode="normal" in="SourceGraphic" in2="BackgroundImageFix" result="shape"/>
<feGaussianBlur stdDeviation="3" result="effect1_foregroundBlur_2331_81479"/>
</filter>
<filter id="filter7_f_2331_81479" x="72.5557" y="40.5" width="18" height="18" filterUnits="userSpaceOnUse" color-interpolation-filters="sRGB">
<feFlood flood-opacity="0" result="BackgroundImageFix"/>
<feBlend mode="normal" in="SourceGraphic" in2="BackgroundImageFix" result="shape"/>
<feGaussianBlur stdDeviation="3" result="effect1_foregroundBlur_2331_81479"/>
</filter>
<filter id="filter8_f_2331_81479" x="57.4443" y="55.5" width="18" height="18" filterUnits="userSpaceOnUse" color-interpolation-filters="sRGB">
<feFlood flood-opacity="0" result="BackgroundImageFix"/>
<feBlend mode="normal" in="SourceGraphic" in2="BackgroundImageFix" result="shape"/>
<feGaussianBlur stdDeviation="3" result="effect1_foregroundBlur_2331_81479"/>
</filter>
<filter id="filter9_f_2331_81479" x="87.6667" y="55.5" width="18" height="18" filterUnits="userSpaceOnUse" color-interpolation-filters="sRGB">
<feFlood flood-opacity="0" result="BackgroundImageFix"/>
<feBlend mode="normal" in="SourceGraphic" in2="BackgroundImageFix" result="shape"/>
<feGaussianBlur stdDeviation="3" result="effect1_foregroundBlur_2331_81479"/>
</filter>
<filter id="filter10_f_2331_81479" x="57.4443" y="70.5" width="18" height="18" filterUnits="userSpaceOnUse" color-interpolation-filters="sRGB">
<feFlood flood-opacity="0" result="BackgroundImageFix"/>
<feBlend mode="normal" in="SourceGraphic" in2="BackgroundImageFix" result="shape"/>
<feGaussianBlur stdDeviation="3" result="effect1_foregroundBlur_2331_81479"/>
</filter>
<filter id="filter11_f_2331_81479" x="102.778" y="70.5" width="18" height="18" filterUnits="userSpaceOnUse" color-interpolation-filters="sRGB">
<feFlood flood-opacity="0" result="BackgroundImageFix"/>
<feBlend mode="normal" in="SourceGraphic" in2="BackgroundImageFix" result="shape"/>
<feGaussianBlur stdDeviation="3" result="effect1_foregroundBlur_2331_81479"/>
</filter>
<filter id="filter12_f_2331_81479" x="57.4443" y="85.5" width="18" height="18" filterUnits="userSpaceOnUse" color-interpolation-filters="sRGB">
<feFlood flood-opacity="0" result="BackgroundImageFix"/>
<feBlend mode="normal" in="SourceGraphic" in2="BackgroundImageFix" result="shape"/>
<feGaussianBlur stdDeviation="3" result="effect1_foregroundBlur_2331_81479"/>
</filter>
<filter id="filter13_f_2331_81479" x="117.889" y="85.5" width="18" height="18" filterUnits="userSpaceOnUse" color-interpolation-filters="sRGB">
<feFlood flood-opacity="0" result="BackgroundImageFix"/>
<feBlend mode="normal" in="SourceGraphic" in2="BackgroundImageFix" result="shape"/>
<feGaussianBlur stdDeviation="3" result="effect1_foregroundBlur_2331_81479"/>
</filter>
<filter id="filter14_f_2331_81479" x="-3" y="10.5" width="18" height="18" filterUnits="userSpaceOnUse" color-interpolation-filters="sRGB">
<feFlood flood-opacity="0" result="BackgroundImageFix"/>
<feBlend mode="normal" in="SourceGraphic" in2="BackgroundImageFix" result="shape"/>
<feGaussianBlur stdDeviation="3" result="effect1_foregroundBlur_2331_81479"/>
</filter>
<filter id="filter15_f_2331_81479" x="12.1111" y="-4.5" width="18" height="18" filterUnits="userSpaceOnUse" color-interpolation-filters="sRGB">
<feFlood flood-opacity="0" result="BackgroundImageFix"/>
<feBlend mode="normal" in="SourceGraphic" in2="BackgroundImageFix" result="shape"/>
<feGaussianBlur stdDeviation="3" result="effect1_foregroundBlur_2331_81479"/>
</filter>
<filter id="filter16_f_2331_81479" x="12.1111" y="25.5" width="18" height="18" filterUnits="userSpaceOnUse" color-interpolation-filters="sRGB">
<feFlood flood-opacity="0" result="BackgroundImageFix"/>
<feBlend mode="normal" in="SourceGraphic" in2="BackgroundImageFix" result="shape"/>
<feGaussianBlur stdDeviation="3" result="effect1_foregroundBlur_2331_81479"/>
</filter>
<filter id="filter17_f_2331_81479" x="27.2222" y="10.5" width="18" height="18" filterUnits="userSpaceOnUse" color-interpolation-filters="sRGB">
<feFlood flood-opacity="0" result="BackgroundImageFix"/>
<feBlend mode="normal" in="SourceGraphic" in2="BackgroundImageFix" result="shape"/>
<feGaussianBlur stdDeviation="3" result="effect1_foregroundBlur_2331_81479"/>
</filter>
<clipPath id="clip0_2331_81479">
<rect x="60.4443" width="12" height="12" rx="6" fill="white"/>
</clipPath>
<clipPath id="clip1_2331_81479">
<rect x="120.889" width="12" height="12" rx="6" fill="white"/>
</clipPath>
<clipPath id="clip2_2331_81479">
<rect x="60.4443" y="15" width="12" height="12" rx="6" fill="white"/>
</clipPath>
<clipPath id="clip3_2331_81479">
<rect x="105.778" y="15" width="12" height="12" rx="6" fill="white"/>
</clipPath>
<clipPath id="clip4_2331_81479">
<rect x="60.4443" y="30" width="12" height="12" rx="6" fill="white"/>
</clipPath>
<clipPath id="clip5_2331_81479">
<rect x="90.6667" y="30" width="12" height="12" rx="6" fill="white"/>
</clipPath>
<clipPath id="clip6_2331_81479">
<rect x="60.4443" y="45" width="12" height="12" rx="6" fill="white"/>
</clipPath>
<clipPath id="clip7_2331_81479">
<rect x="75.5557" y="45" width="12" height="12" rx="6" fill="white"/>
</clipPath>
<clipPath id="clip8_2331_81479">
<rect x="60.4443" y="60" width="12" height="12" rx="6" fill="white"/>
</clipPath>
<clipPath id="clip9_2331_81479">
<rect x="90.6667" y="60" width="12" height="12" rx="6" fill="white"/>
</clipPath>
<clipPath id="clip10_2331_81479">
<rect x="60.4443" y="75" width="12" height="12" rx="6" fill="white"/>
</clipPath>
<clipPath id="clip11_2331_81479">
<rect x="105.778" y="75" width="12" height="12" rx="6" fill="white"/>
</clipPath>
<clipPath id="clip12_2331_81479">
<rect x="60.4443" y="90" width="12" height="12" rx="6" fill="white"/>
</clipPath>
<clipPath id="clip13_2331_81479">
<rect x="120.889" y="90" width="12" height="12" rx="6" fill="white"/>
</clipPath>
<clipPath id="clip14_2331_81479">
<rect y="15" width="12" height="12" rx="6" fill="white"/>
</clipPath>
<clipPath id="clip15_2331_81479">
<rect x="15.1111" width="12" height="12" rx="6" fill="white"/>
</clipPath>
<clipPath id="clip16_2331_81479">
<rect x="15.1111" y="30" width="12" height="12" rx="6" fill="white"/>
</clipPath>
<clipPath id="clip17_2331_81479">
<rect x="30.2222" y="15" width="12" height="12" rx="6" fill="white"/>
</clipPath>
</defs>
</svg>
