<svg width="72" height="102" viewBox="0 0 72 102" fill="none" xmlns="http://www.w3.org/2000/svg">
<g clip-path="url(#clip0_2331_81579)">
<rect y="45" width="12" height="12" rx="6" fill="white" style="mix-blend-mode:darken"/>
<circle cx="6" cy="51" r="6" fill="#FF9900"/>
<g filter="url(#filter0_f_2331_81579)">
<circle cx="6" cy="49.5" r="3" fill="#FFFF00"/>
</g>
</g>
<g clip-path="url(#clip1_2331_81579)">
<rect x="15" y="45" width="12" height="12" rx="6" fill="white" style="mix-blend-mode:darken"/>
<circle cx="21" cy="51" r="6" fill="#FF9900"/>
<g filter="url(#filter1_f_2331_81579)">
<circle cx="21" cy="49.5" r="3" fill="#FFFF00"/>
</g>
</g>
<g clip-path="url(#clip2_2331_81579)">
<rect x="30" y="45" width="12" height="12" rx="6" fill="white" style="mix-blend-mode:darken"/>
<circle cx="36" cy="51" r="6" fill="#FF9900"/>
<g filter="url(#filter2_f_2331_81579)">
<circle cx="36" cy="49.5" r="3" fill="#FFFF00"/>
</g>
</g>
<g clip-path="url(#clip3_2331_81579)">
<rect x="45" y="45" width="12" height="12" rx="6" fill="white" style="mix-blend-mode:darken"/>
<circle cx="51" cy="51" r="6" fill="#FF9900"/>
<g filter="url(#filter3_f_2331_81579)">
<circle cx="51" cy="49.5" r="3" fill="#FFFF00"/>
</g>
</g>
<g clip-path="url(#clip4_2331_81579)">
<rect x="60" y="45" width="12" height="12" rx="6" fill="white" style="mix-blend-mode:darken"/>
<circle cx="66" cy="51" r="6" fill="#FF9900"/>
<g filter="url(#filter4_f_2331_81579)">
<circle cx="66" cy="49.5" r="3" fill="#FFFF00"/>
</g>
</g>
<defs>
<filter id="filter0_f_2331_81579" x="-3" y="40.5" width="18" height="18" filterUnits="userSpaceOnUse" color-interpolation-filters="sRGB">
<feFlood flood-opacity="0" result="BackgroundImageFix"/>
<feBlend mode="normal" in="SourceGraphic" in2="BackgroundImageFix" result="shape"/>
<feGaussianBlur stdDeviation="3" result="effect1_foregroundBlur_2331_81579"/>
</filter>
<filter id="filter1_f_2331_81579" x="12" y="40.5" width="18" height="18" filterUnits="userSpaceOnUse" color-interpolation-filters="sRGB">
<feFlood flood-opacity="0" result="BackgroundImageFix"/>
<feBlend mode="normal" in="SourceGraphic" in2="BackgroundImageFix" result="shape"/>
<feGaussianBlur stdDeviation="3" result="effect1_foregroundBlur_2331_81579"/>
</filter>
<filter id="filter2_f_2331_81579" x="27" y="40.5" width="18" height="18" filterUnits="userSpaceOnUse" color-interpolation-filters="sRGB">
<feFlood flood-opacity="0" result="BackgroundImageFix"/>
<feBlend mode="normal" in="SourceGraphic" in2="BackgroundImageFix" result="shape"/>
<feGaussianBlur stdDeviation="3" result="effect1_foregroundBlur_2331_81579"/>
</filter>
<filter id="filter3_f_2331_81579" x="42" y="40.5" width="18" height="18" filterUnits="userSpaceOnUse" color-interpolation-filters="sRGB">
<feFlood flood-opacity="0" result="BackgroundImageFix"/>
<feBlend mode="normal" in="SourceGraphic" in2="BackgroundImageFix" result="shape"/>
<feGaussianBlur stdDeviation="3" result="effect1_foregroundBlur_2331_81579"/>
</filter>
<filter id="filter4_f_2331_81579" x="57" y="40.5" width="18" height="18" filterUnits="userSpaceOnUse" color-interpolation-filters="sRGB">
<feFlood flood-opacity="0" result="BackgroundImageFix"/>
<feBlend mode="normal" in="SourceGraphic" in2="BackgroundImageFix" result="shape"/>
<feGaussianBlur stdDeviation="3" result="effect1_foregroundBlur_2331_81579"/>
</filter>
<clipPath id="clip0_2331_81579">
<rect y="45" width="12" height="12" rx="6" fill="white"/>
</clipPath>
<clipPath id="clip1_2331_81579">
<rect x="15" y="45" width="12" height="12" rx="6" fill="white"/>
</clipPath>
<clipPath id="clip2_2331_81579">
<rect x="30" y="45" width="12" height="12" rx="6" fill="white"/>
</clipPath>
<clipPath id="clip3_2331_81579">
<rect x="45" y="45" width="12" height="12" rx="6" fill="white"/>
</clipPath>
<clipPath id="clip4_2331_81579">
<rect x="60" y="45" width="12" height="12" rx="6" fill="white"/>
</clipPath>
</defs>
</svg>
