<svg width="147" height="24" viewBox="0 0 147 24" fill="none" xmlns="http://www.w3.org/2000/svg">
  <path d="M4 0H8.5L12 5L10.5 10.5L5 12L0 8.5V4H4V0Z" fill="white"/>
  <path d="M0 20V15.5L5 12L10.5 13.5L12 19L8.5 24H4V20H0Z" fill="white"/>
  <path d="M20 24H15.5L12 19L13.5 13.5L19 12L24 15.5V20H20V24Z" fill="white"/>
  <path d="M24 4V8.5L19 12L13.5 10.5L12 5L15.5 0H20V4H24Z" fill="white"/>
  <path fill-rule="evenodd" clip-rule="evenodd" d="M55.2002 20H36V9.86719H50.9336V8.26758H36V4H55.2002V20ZM40.2676 15.7334H50.9336V14.1338H40.2676V15.7334Z" fill="white"/>
  <path d="M76 8.26758H61.0674V9.86719H76V14.1338H61.0674V15.7334H76V20H56.8008V4H76V8.26758Z" fill="white"/>
  <path d="M96.8008 8.26758H89.334V20H85.0674V8.26758H77.6006V4H96.8008V8.26758Z" fill="white"/>
  <path d="M102.667 20H98.4004V4H102.667V20Z" fill="white"/>
  <path d="M119.2 15.1494V4H123.467V20H117.656L108.534 8.85059V20H104.268V4H110.078L119.2 15.1494Z" fill="white"/>
  <path d="M138.694 11.999L146.401 20H140.477L135.733 15.0742L130.989 20H125.066L132.771 11.999L125.067 4H130.99L135.733 8.9248L140.476 4H146.4L138.694 11.999Z" fill="white"/>
</svg>