<svg width="640" height="64" viewBox="0 0 640 64" fill="none" xmlns="http://www.w3.org/2000/svg">
  <path fill-rule="evenodd" clip-rule="evenodd"
    d="M66 64H50L45.3281 51H20.6719L16 64H0L23 0H43L66 64ZM102 0C119.673 0 134 14.3269 134 32C134 49.6731 119.673 64 102 64H76V0H102ZM174 0C186.702 0.000263214 197 10.2976 197 23C197 31.6125 192.264 39.1154 185.256 43.0566L199 64H182L161 32H172C176.97 31.9997 181 27.9704 181 23C181 18.0296 176.97 14.0003 172 14H161V64H145V0H174ZM226 64H210V0H226V64ZM302 64H286L281.328 51H256.672L252 64H236L259 0H279L302 64ZM353 38.3994V0H369V64H351L327 25.5996V64H311V0H329L353 38.3994ZM428 64H412V0H428V64ZM447 32L470 64H451L428 32L451 0H470L447 32ZM524 14H496V24H520V38H496V50H524V64H480V0H524V14ZM553 64H537V0H553V64ZM588 0L602 36L616 0H634L640 64H624L620.625 28L606 64H598L583.375 28L580 64H564L570 0H588ZM92 50H100C109.941 50 118 41.9411 118 32C118 22.0589 109.941 14 100 14H92V50ZM25.3438 38H40.6562L33 16.6953L25.3438 38ZM261.344 38H276.656L269 16.6953L261.344 38Z"
    fill="black" />
  <title>Adrian Keim</title>
</svg>