<svg width="178" height="18" viewBox="0 0 178 18" fill="none" xmlns="http://www.w3.org/2000/svg">
<path d="M5.54606 10.506H11.3774L8.50991 2.48193H8.46172L5.54606 10.506ZM7.2569 0.409638H9.78702L16.5099 17.6145H13.9798L12.1003 12.4337H4.82317L2.89545 17.6145H0.558105L7.2569 0.409638Z" fill="white"/>
<path d="M18.1831 0.409638H20.6168L29.6771 14.3614H29.7253V0.409638H31.894V17.6145H29.3879L20.4 3.80723H20.3518V17.6145H18.1831V0.409638Z" fill="white"/>
<path d="M37.8862 15.6867H41.6935C41.9344 15.6867 42.2718 15.6867 42.6573 15.6386C43.0429 15.5904 43.4525 15.494 43.8862 15.3494C44.2959 15.2048 44.7296 14.9639 45.1633 14.6747C45.5971 14.3855 45.9826 14 46.32 13.494C46.6573 13.012 46.9224 12.3855 47.1392 11.6386C47.3561 10.8916 47.4766 9.9759 47.4766 8.91566C47.4766 7.90361 47.3561 6.98795 47.1633 6.16867C46.9706 5.3494 46.6332 4.6747 46.1754 4.09638C45.7176 3.51807 45.1392 3.08434 44.4164 2.79518C43.6935 2.50602 42.8019 2.36145 41.7417 2.33735H37.8862V15.6867ZM35.5971 0.409638H41.5007C44.1513 0.409638 46.1754 1.08434 47.6212 2.43373C49.0429 3.78313 49.7417 5.85542 49.7657 8.60241C49.7657 10.0482 49.5971 11.3494 49.2838 12.4578C48.9465 13.5663 48.4645 14.506 47.7898 15.2771C47.1151 16.0482 46.2477 16.6265 45.2115 17.012C44.1513 17.4217 42.9224 17.6145 41.5007 17.6145H35.5971V0.409638Z" fill="white"/>
<path d="M59.6718 10.5783V17.6145H57.3827V10.5783L50.732 0.409638H53.4549L58.6116 8.60241L63.6477 0.409638H66.2501L59.6718 10.5783Z" fill="white"/>
<path d="M74.9431 0.409638H78.0756L83.4973 14.8675L88.9431 0.409638H92.0756V17.6145H89.9069V3.3012H89.8588L84.4853 17.6145H82.5334L77.16 3.3012H77.1118V17.6145H74.9431V0.409638Z" fill="white"/>
<path d="M107.981 5.59036C107.716 4.38554 107.138 3.46988 106.271 2.84337C105.403 2.24096 104.367 1.95181 103.162 1.92771C102.126 1.92771 101.235 2.12048 100.512 2.50602C99.7887 2.89157 99.1863 3.42169 98.7044 4.07229C98.2225 4.72289 97.8851 5.46988 97.6682 6.28916C97.4273 7.13253 97.3309 8 97.3309 8.89157C97.3309 9.87952 97.4273 10.8193 97.6682 11.6867C97.8851 12.5542 98.2225 13.3253 98.7044 13.9759C99.1863 14.6265 99.7887 15.1325 100.536 15.5181C101.259 15.9036 102.15 16.0964 103.186 16.0964C103.933 16.0964 104.608 15.9759 105.186 15.7349C105.765 15.494 106.271 15.1325 106.704 14.6988C107.138 14.2651 107.475 13.7349 107.716 13.1084C107.957 12.506 108.102 11.8554 108.15 11.1325H110.439C110.198 13.3012 109.451 14.988 108.198 16.1928C106.921 17.3976 105.186 18 102.994 18C101.644 18 100.488 17.7831 99.4996 17.3253C98.4875 16.8675 97.6682 16.241 97.0176 15.4217C96.3429 14.6265 95.861 13.6867 95.5237 12.5783C95.1863 11.494 95.0417 10.3133 95.0417 9.06024C95.0417 7.80723 95.2104 6.6506 95.5719 5.54217C95.9092 4.43373 96.4393 3.46988 97.114 2.6506C97.7887 1.83132 98.6562 1.20482 99.6682 0.722891C100.68 0.240964 101.861 0 103.186 0C104.078 0 104.921 0.120482 105.741 0.361445C106.536 0.602409 107.235 0.963855 107.885 1.42169C108.488 1.90361 109.018 2.48193 109.451 3.18072C109.861 3.87952 110.126 4.6747 110.271 5.59036H107.981Z" fill="white"/>
<path d="M125.371 5.59036C125.106 4.38554 124.528 3.46988 123.661 2.84337C122.793 2.24096 121.757 1.95181 120.552 1.92771C119.516 1.92771 118.624 2.12048 117.901 2.50602C117.179 2.89157 116.576 3.42169 116.094 4.07229C115.612 4.72289 115.275 5.46988 115.058 6.28916C114.817 7.13253 114.721 8 114.721 8.89157C114.721 9.87952 114.817 10.8193 115.058 11.6867C115.275 12.5542 115.612 13.3253 116.094 13.9759C116.576 14.6265 117.179 15.1325 117.926 15.5181C118.648 15.9036 119.54 16.0964 120.576 16.0964C121.323 16.0964 121.998 15.9759 122.576 15.7349C123.154 15.494 123.661 15.1325 124.094 14.6988C124.528 14.2651 124.865 13.7349 125.106 13.1084C125.347 12.506 125.492 11.8554 125.54 11.1325H127.829C127.588 13.3012 126.841 14.988 125.588 16.1928C124.311 17.3976 122.576 18 120.383 18C119.034 18 117.877 17.7831 116.889 17.3253C115.877 16.8675 115.058 16.241 114.408 15.4217C113.733 14.6265 113.251 13.6867 112.914 12.5783C112.576 11.494 112.432 10.3133 112.432 9.06024C112.432 7.80723 112.6 6.6506 112.962 5.54217C113.299 4.43373 113.829 3.46988 114.504 2.6506C115.179 1.83132 116.046 1.20482 117.058 0.722891C118.07 0.240964 119.251 0 120.576 0C121.468 0 122.311 0.120482 123.13 0.361445C123.926 0.602409 124.624 0.963855 125.275 1.42169C125.877 1.90361 126.408 2.48193 126.841 3.18072C127.251 3.87952 127.516 4.6747 127.661 5.59036H125.371Z" fill="white"/>
<path d="M144.4 11.3976C144.4 13.6145 143.797 15.253 142.641 16.3614C141.46 17.4699 139.797 18 137.629 18C135.412 18 133.677 17.494 132.424 16.4337C131.171 15.3735 130.568 13.7108 130.568 11.3976V0.409638H132.858V11.3976C132.858 12.9398 133.267 14.1205 134.087 14.9157C134.906 15.7108 136.087 16.0964 137.629 16.0964C139.074 16.0964 140.183 15.7108 140.954 14.9157C141.725 14.1205 142.111 12.9398 142.111 11.3976V0.409638H144.4V11.3976Z" fill="white"/>
<path d="M148.031 0.409638H150.464L159.525 14.3614H159.573V0.409638H161.741V17.6145H159.235L150.247 3.80723H150.199V17.6145H148.031V0.409638Z" fill="white"/>
<path d="M165.445 0.409638H177.324V2.33735H167.734V7.80723H176.674V9.73494H167.734V15.6867H177.396V17.6145H165.445V0.409638Z" fill="white"/>
</svg>
