<svg width="127" height="28" viewBox="0 0 127 28" fill="none" xmlns="http://www.w3.org/2000/svg">
<path d="M4.83903 9.04167V6.70833C4.83903 5.58075 5.75311 4.66667 6.8807 4.66667H10.089C10.7334 4.66667 11.2557 4.14433 11.2557 3.5V2.04167C11.2557 0.914085 12.1698 0 13.2974 0H14.464C15.5916 0 16.5057 0.914085 16.5057 2.04167V3.20833C16.5057 4.33591 15.5916 5.25 14.464 5.25H12.4224C11.778 5.25 11.2557 5.77233 11.2557 6.41667V9.04167C11.2557 10.1692 10.3416 11.0833 9.21403 11.0833H6.8807C5.75311 11.0833 4.83903 10.1692 4.83903 9.04167Z" fill="white"/>
<path d="M19.1307 4.66667H21.464C22.5916 4.66667 23.5057 5.58075 23.5057 6.70833V9.91667C23.5057 10.561 24.028 11.0833 24.6724 11.0833H26.1307C27.2583 11.0833 28.1724 11.9974 28.1724 13.125V14.2917C28.1724 15.4192 27.2583 16.3333 26.1307 16.3333H24.964C23.8364 16.3333 22.9224 15.4192 22.9224 14.2917V12.25C22.9224 11.6057 22.4 11.0833 21.7557 11.0833H19.1307C18.0031 11.0833 17.089 10.1692 17.089 9.04167V6.70833C17.089 5.58075 18.0031 4.66667 19.1307 4.66667Z" fill="white"/>
<path d="M23.5057 21.2917V18.9583C23.5057 17.8308 22.5916 16.9167 21.464 16.9167H19.1307C18.0031 16.9167 17.089 17.8308 17.089 18.9583V21.5833C17.089 22.2277 16.5667 22.75 15.9224 22.75L13.8807 22.75C12.7531 22.75 11.839 23.6641 11.839 24.7917V25.9583C11.839 27.0859 12.7531 28 13.8807 28H15.0474C16.1749 28 17.089 27.0859 17.089 25.9583V24.5C17.089 23.8557 17.6114 23.3333 18.2557 23.3333H21.464C22.5916 23.3333 23.5057 22.4192 23.5057 21.2917Z" fill="white"/>
<path d="M9.21403 23.3333H6.8807C5.75311 23.3333 4.83903 22.4192 4.83903 21.2917V18.0833C4.83903 17.439 4.31669 16.9167 3.67236 16.9167H2.21403C1.08645 16.9167 0.172363 16.0026 0.172363 14.875V13.7083C0.172363 12.5808 1.08645 11.6667 2.21403 11.6667H3.3807C4.50828 11.6667 5.42236 12.5808 5.42236 13.7083V15.75C5.42236 16.3943 5.9447 16.9167 6.58903 16.9167H9.21403C10.3416 16.9167 11.2557 17.8308 11.2557 18.9583V21.2917C11.2557 22.4192 10.3416 23.3333 9.21403 23.3333Z" fill="white"/>
<path fill-rule="evenodd" clip-rule="evenodd" d="M41.5424 20.7083C42.5068 21.2839 43.6035 21.5717 44.8324 21.5717C45.6568 21.5717 46.419 21.4317 47.119 21.1517C47.819 20.8561 48.4024 20.4361 48.869 19.8917V21.2917H51.7624V3.62833H48.7057V9.88167C47.7568 8.83944 46.4579 8.31833 44.809 8.31833C43.6113 8.31833 42.5224 8.61389 41.5424 9.205C40.5779 9.78056 39.8157 10.5739 39.2557 11.585C38.6957 12.5806 38.4157 13.7006 38.4157 14.945C38.4157 16.1894 38.6957 17.3172 39.2557 18.3283C39.8157 19.3239 40.5779 20.1172 41.5424 20.7083ZM46.979 18.2817C46.4501 18.6083 45.8435 18.7717 45.159 18.7717C44.4746 18.7717 43.8601 18.6083 43.3157 18.2817C42.7712 17.955 42.3435 17.5039 42.0324 16.9283C41.7368 16.3372 41.589 15.6761 41.589 14.945C41.589 14.2139 41.7368 13.5606 42.0324 12.985C42.3435 12.4094 42.7712 11.9583 43.3157 11.6317C43.8601 11.2894 44.4746 11.1183 45.159 11.1183C45.8435 11.1183 46.4501 11.2817 46.979 11.6083C47.5235 11.935 47.9435 12.3861 48.239 12.9617C48.5501 13.5372 48.7057 14.1983 48.7057 14.945C48.7057 15.6917 48.5501 16.3528 48.239 16.9283C47.9435 17.5039 47.5235 17.955 46.979 18.2817Z" fill="white"/>
<path fill-rule="evenodd" clip-rule="evenodd" d="M56.4961 20.685C57.4761 21.2761 58.6194 21.5717 59.9261 21.5717C61.2172 21.5717 62.345 21.2839 63.3094 20.7083C64.2894 20.1172 64.9739 19.3706 65.3628 18.4683L62.8894 17.255C62.6094 17.7372 62.2206 18.1339 61.7228 18.445C61.2406 18.7406 60.6494 18.8883 59.9494 18.8883C59.0317 18.8883 58.2617 18.6083 57.6394 18.0483C57.0172 17.4883 56.6594 16.7417 56.5661 15.8083H65.7128C65.775 15.6372 65.8139 15.4428 65.8294 15.225C65.8606 14.9917 65.8761 14.7583 65.8761 14.525C65.8761 13.3894 65.635 12.355 65.1528 11.4217C64.6706 10.4883 63.9706 9.74167 63.0528 9.18167C62.135 8.60611 61.015 8.31833 59.6928 8.31833C58.5106 8.31833 57.4372 8.60611 56.4728 9.18167C55.5239 9.75722 54.7694 10.5428 54.2094 11.5383C53.665 12.5183 53.3928 13.6461 53.3928 14.9217C53.3928 16.1506 53.665 17.2706 54.2094 18.2817C54.7539 19.2928 55.5161 20.0939 56.4961 20.685ZM57.7094 11.5383C58.2694 11.0717 58.9306 10.8383 59.6928 10.8383C60.5017 10.8383 61.1706 11.0872 61.6994 11.585C62.2439 12.0672 62.5472 12.6972 62.6094 13.475H56.6361C56.8072 12.635 57.165 11.9894 57.7094 11.5383Z" fill="white"/>
<path d="M67.8432 18.3283C68.4188 19.3239 69.2043 20.1172 70.1999 20.7083C71.211 21.2839 72.3466 21.5717 73.6066 21.5717C74.5243 21.5717 75.3721 21.4161 76.1499 21.105C76.9277 20.7783 77.5966 20.335 78.1565 19.775C78.7166 19.1994 79.121 18.5539 79.3699 17.8383L76.6866 16.625C76.4377 17.2939 76.041 17.8228 75.4966 18.2117C74.9677 18.585 74.3377 18.7717 73.6066 18.7717C72.9377 18.7717 72.3388 18.6083 71.8099 18.2817C71.2966 17.955 70.8921 17.5039 70.5966 16.9283C70.301 16.3372 70.1532 15.6761 70.1532 14.945C70.1532 14.1983 70.301 13.5372 70.5966 12.9617C70.8921 12.3861 71.2966 11.935 71.8099 11.6083C72.3388 11.2817 72.9377 11.1183 73.6066 11.1183C74.3377 11.1183 74.9677 11.3128 75.4966 11.7017C76.041 12.0906 76.4377 12.6039 76.6866 13.2417L79.3699 12.075C79.1054 11.3283 78.6932 10.675 78.1332 10.115C77.5732 9.53944 76.9043 9.09611 76.1266 8.785C75.3488 8.47389 74.5088 8.31833 73.6066 8.31833C72.3466 8.31833 71.211 8.60611 70.1999 9.18167C69.2043 9.75722 68.4188 10.5428 67.8432 11.5383C67.2677 12.5339 66.9799 13.6617 66.9799 14.9217C66.9799 16.1817 67.2677 17.3172 67.8432 18.3283Z" fill="white"/>
<path d="M80.9892 3.90833V7.175H84.0459V3.90833H80.9892Z" fill="white"/>
<path d="M84.0459 8.59833H80.9892V21.2917H84.0459V8.59833Z" fill="white"/>
<path fill-rule="evenodd" clip-rule="evenodd" d="M86.1681 8.59833V25.9583H89.2248V20.0783C89.6914 20.5606 90.2592 20.9339 90.9281 21.1983C91.597 21.4472 92.3203 21.5717 93.0981 21.5717C94.327 21.5717 95.4236 21.2839 96.3881 20.7083C97.3525 20.1172 98.1148 19.3239 98.6748 18.3283C99.2348 17.3172 99.5148 16.1894 99.5148 14.945C99.5148 13.7006 99.2348 12.5806 98.6748 11.585C98.1148 10.5739 97.3525 9.78056 96.3881 9.205C95.4236 8.61389 94.3348 8.31833 93.1214 8.31833C92.2503 8.31833 91.4648 8.47389 90.7648 8.785C90.0648 9.09611 89.4892 9.53167 89.0381 10.0917V8.59833H86.1681ZM94.5914 18.2817C94.0625 18.6083 93.4481 18.7717 92.7481 18.7717C92.0792 18.7717 91.4725 18.6083 90.9281 18.2817C90.3992 17.955 89.9792 17.5039 89.6681 16.9283C89.3725 16.3528 89.2248 15.6917 89.2248 14.945C89.2248 14.1983 89.3725 13.5372 89.6681 12.9617C89.9792 12.3861 90.3992 11.935 90.9281 11.6083C91.4725 11.2817 92.0792 11.1183 92.7481 11.1183C93.4481 11.1183 94.0625 11.2894 94.5914 11.6317C95.1359 11.9583 95.5636 12.4094 95.8748 12.985C96.1859 13.5606 96.3414 14.2139 96.3414 14.945C96.3414 15.6761 96.1859 16.3372 95.8748 16.9283C95.5636 17.5039 95.1359 17.955 94.5914 18.2817Z" fill="white"/>
<path fill-rule="evenodd" clip-rule="evenodd" d="M101.822 20.5917C102.615 21.245 103.673 21.5717 104.995 21.5717C106.644 21.5717 107.966 21.0272 108.962 19.9383V21.2917H111.855V12.845C111.855 11.9583 111.63 11.1728 111.179 10.4883C110.727 9.80389 110.105 9.275 109.312 8.90167C108.534 8.51278 107.624 8.31833 106.582 8.31833C105.306 8.31833 104.171 8.62167 103.175 9.22833C102.18 9.835 101.495 10.6361 101.122 11.6317L103.619 12.845C103.852 12.2694 104.217 11.8106 104.715 11.4683C105.213 11.1106 105.796 10.9317 106.465 10.9317C107.165 10.9317 107.725 11.1183 108.145 11.4917C108.581 11.8494 108.799 12.3006 108.799 12.845V13.265L105.019 13.8717C103.525 14.1206 102.421 14.595 101.705 15.295C100.99 15.995 100.632 16.8739 100.632 17.9317C100.632 19.0517 101.029 19.9383 101.822 20.5917ZM104.295 18.865C103.969 18.6006 103.805 18.2506 103.805 17.815C103.805 16.9283 104.404 16.3683 105.602 16.135L108.799 15.5983V16.1117C108.799 16.9828 108.495 17.7217 107.889 18.3283C107.297 18.935 106.52 19.2383 105.555 19.2383C105.042 19.2383 104.622 19.1139 104.295 18.865Z" fill="white"/>
<path fill-rule="evenodd" clip-rule="evenodd" d="M116.594 20.7083C117.558 21.2839 118.655 21.5717 119.884 21.5717C120.708 21.5717 121.47 21.4317 122.17 21.1517C122.87 20.8561 123.454 20.4361 123.92 19.8917V21.2917H126.814V3.62833H123.757V9.88167C122.808 8.83944 121.509 8.31833 119.86 8.31833C118.663 8.31833 117.574 8.61389 116.594 9.205C115.629 9.78056 114.867 10.5739 114.307 11.585C113.747 12.5806 113.467 13.7006 113.467 14.945C113.467 16.1894 113.747 17.3172 114.307 18.3283C114.867 19.3239 115.629 20.1172 116.594 20.7083ZM122.03 18.2817C121.501 18.6083 120.895 18.7717 120.21 18.7717C119.526 18.7717 118.911 18.6083 118.367 18.2817C117.823 17.955 117.395 17.5039 117.084 16.9283C116.788 16.3372 116.64 15.6761 116.64 14.945C116.64 14.2139 116.788 13.5606 117.084 12.985C117.395 12.4094 117.823 11.9583 118.367 11.6317C118.911 11.2894 119.526 11.1183 120.21 11.1183C120.895 11.1183 121.501 11.2817 122.03 11.6083C122.575 11.935 122.995 12.3861 123.29 12.9617C123.601 13.5372 123.757 14.1983 123.757 14.945C123.757 15.6917 123.601 16.3528 123.29 16.9283C122.995 17.5039 122.575 17.955 122.03 18.2817Z" fill="white"/>
</svg>
