<svg width="97" height="36" viewBox="0 0 97 36" fill="none" xmlns="http://www.w3.org/2000/svg">
<path d="M4.53909 17.0439C1.98251 17.0439 0.656877 15.5289 0.656877 12.8776V4.16628C0.656877 1.51501 1.98251 0 4.53909 0C7.09567 0 8.42131 1.51501 8.42131 4.16628V5.5866H5.95941V4.00058C5.95941 2.81697 5.43863 2.3672 4.61011 2.3672C3.78159 2.3672 3.2608 2.81697 3.2608 4.00058V13.067C3.2608 14.2506 3.78159 14.6767 4.61011 14.6767C5.43863 14.6767 5.95941 14.2506 5.95941 13.067V9.8239H4.65745V7.45669H8.42131V12.8776C8.42131 15.5289 7.09567 17.0439 4.53909 17.0439Z" fill="white"/>
<path d="M10.0931 16.8072V0.23672H12.6971V14.4399H16.9817V16.8072H10.0931Z" fill="white"/>
<path d="M18.2304 16.8072V0.23672H25.332V2.60393H20.8343V6.98325H24.4088V9.35046H20.8343V14.4399H25.332V16.8072H18.2304Z" fill="white"/>
<path d="M26.83 16.8072V0.23672H30.7596C33.4582 0.23672 34.6181 1.49134 34.6181 4.04792V4.71074C34.6181 6.41512 34.0973 7.48037 32.9374 7.95381V8.00115C34.3341 8.47459 34.8785 9.70554 34.8785 11.4573V12.8776C34.8785 15.4342 33.5292 16.8072 30.9253 16.8072H26.83ZM29.4339 6.98325H30.4518C31.4224 6.98325 32.0142 6.55716 32.0142 5.23152V4.30831C32.0142 3.12471 31.6118 2.60393 30.6886 2.60393H29.4339V6.98325ZM29.4339 14.4399H30.9253C31.8011 14.4399 32.2746 14.0375 32.2746 12.8066V11.3626C32.2746 9.8239 31.7775 9.35046 30.5939 9.35046H29.4339V14.4399Z" fill="white"/>
<path d="M4.23136 36C1.67477 36 0.396484 34.485 0.396484 31.8337V30.8868H2.85838V32.0231C2.85838 33.2067 3.37916 33.6328 4.20768 33.6328C5.03621 33.6328 5.55699 33.2067 5.55699 31.9758C5.55699 30.6028 5.03621 29.7269 3.33182 28.2356C1.15399 26.3181 0.443828 24.9688 0.443828 23.0751C0.443828 20.4711 1.79313 18.9561 4.32604 18.9561C6.85895 18.9561 8.11357 20.4711 8.11357 23.1224V23.8089H5.65168V22.9567C5.65168 21.7731 5.17824 21.3233 4.34972 21.3233C3.52119 21.3233 3.04775 21.7731 3.04775 22.9094C3.04775 24.1166 3.59221 24.9925 5.2966 26.4838C7.47443 28.4013 8.16091 29.7269 8.16091 31.7864C8.16091 34.485 6.78794 36 4.23136 36Z" fill="white"/>
<path d="M8.89808 35.7633L11.5967 19.1928H15.1238L17.8224 35.7633H15.2185L14.7451 32.4729V32.5202H11.7861L11.3126 35.7633H8.89808ZM12.0938 30.2714H14.4373L13.2774 22.0808H13.2301L12.0938 30.2714Z" fill="white"/>
<path d="M19.0857 35.7633V19.1928H23.0153C25.7139 19.1928 26.8739 20.4475 26.8739 23.004V23.6669C26.8739 25.3713 26.3531 26.4365 25.1931 26.9099V26.9573C26.5898 27.4307 27.1342 28.6617 27.1342 30.4134V31.8337C27.1342 34.3903 25.7849 35.7633 23.181 35.7633H19.0857ZM21.6897 25.9394H22.7076C23.6781 25.9394 24.2699 25.5133 24.2699 24.1876V23.2644C24.2699 22.0808 23.8675 21.5601 22.9443 21.5601H21.6897V25.9394ZM21.6897 33.3961H23.181C24.0569 33.3961 24.5303 32.9936 24.5303 31.7627V30.3187C24.5303 28.78 24.0332 28.3066 22.8496 28.3066H21.6897V33.3961Z" fill="white"/>
<path d="M28.6563 35.7633V19.1928H31.2602V35.7633H28.6563Z" fill="white"/>
<path d="M33.2104 35.7633V19.1928H37.0689C39.7675 19.1928 40.9275 20.4475 40.9275 23.004V24.0219C40.9275 25.7263 40.383 26.8152 39.2231 27.2887V27.336C40.525 27.7385 40.9511 28.9694 40.9511 30.8395V33.7512C40.9511 34.556 40.9748 35.1478 41.2352 35.7633H38.5839C38.4419 35.3372 38.3472 35.0768 38.3472 33.7275V30.6975C38.3472 29.1588 37.8974 28.6617 36.7138 28.6617H35.8143V35.7633H33.2104ZM35.8143 26.2945H36.7612C37.7317 26.2945 38.3235 25.8684 38.3235 24.5427V23.2644C38.3235 22.0808 37.9211 21.5601 36.9979 21.5601H35.8143V26.2945Z" fill="white"/>
<path d="M42.237 35.7633V33.4434L47.0661 21.5601H42.4737V19.1928H49.8594V21.5127L45.0303 33.3961H49.8594V35.7633H42.237Z" fill="white"/>
<path d="M53.7252 35.7633V28.709L50.5768 19.1928H53.3464L55.1218 25.2766H55.1692L56.9446 19.1928H59.4775L56.3291 28.709V35.7633H53.7252Z" fill="white"/>
<path d="M58.8775 35.7633L61.5761 19.1928H65.1033L67.8019 35.7633H65.198L64.7245 32.4729V32.5202H61.7655L61.2921 35.7633H58.8775ZM62.0733 30.2714H64.4168L63.2569 22.0808H63.2095L62.0733 30.2714Z" fill="white"/>
<path d="M69.0652 35.7633V19.1928H72.3319L74.8648 29.1114H74.9122V19.1928H77.2321V35.7633H74.5571L71.4324 23.6669H71.3851V35.7633H69.0652Z" fill="white"/>
<path d="M82.9313 36C80.3747 36 78.978 34.485 78.978 31.8337V23.1224C78.978 20.4711 80.3747 18.9561 82.9313 18.9561C85.4879 18.9561 86.8845 20.4711 86.8845 23.1224V31.8337C86.8845 34.485 85.4879 36 82.9313 36ZM82.9313 33.6328C83.7598 33.6328 84.2806 33.183 84.2806 31.9994V22.9567C84.2806 21.7731 83.7598 21.3233 82.9313 21.3233C82.1028 21.3233 81.582 21.7731 81.582 22.9567V31.9994C81.582 33.183 82.1028 33.6328 82.9313 33.6328Z" fill="white"/>
<path d="M90.422 35.7633L87.9128 19.1928H90.5404L92.2448 32.0468H92.2921L93.9965 19.1928H96.3874L93.8781 35.7633H90.422Z" fill="white"/>
</svg>
