<svg width="69" height="36" viewBox="0 0 69 36" fill="none" xmlns="http://www.w3.org/2000/svg">
<path d="M58.8888 26.8162C54.5647 26.8162 51.8891 22.8115 53.693 16.6835C55.2724 11.1684 59.4412 7.55203 64.0501 7.55203C66.95 7.55203 68.8402 9.33863 67.9512 12.2386C66.9069 15.6219 62.2289 17.5293 58.112 18.4529C57.2834 18.6341 57.0763 19.152 57.0849 20.0755C57.1022 22.5612 58.1897 24.2356 60.3301 24.2356C61.7283 24.2356 63.0316 23.5192 64.8355 21.2665C65.6554 20.2049 67.1485 21.3356 66.2423 22.5698C64.0932 25.4439 61.4608 26.8162 58.8888 26.8162ZM57.7927 15.8377C57.5941 16.4505 57.9221 16.7439 58.6212 16.5972C61.3054 16.0276 63.3423 14.8451 64.2399 11.9883C64.8527 10.055 64.4384 9.17464 63.2992 9.17464C61.1069 9.17464 58.9492 12.3767 57.7927 15.8377Z" fill="white"/>
<path d="M42.4814 26.8162C38.0883 26.8162 36.1118 22.1987 37.7431 16.6145C39.3657 10.9095 43.5258 7.55203 47.5391 7.55203C50.4132 7.55203 52.1222 9.33863 52.01 11.2288C51.846 13.8094 48.5058 13.8353 48.29 11.4187C48.126 9.77017 47.7894 9.17464 46.9522 9.17464C44.7341 9.17464 42.6541 12.791 41.6442 16.3728C40.4446 20.507 41.1954 24.2183 43.9573 24.2442C45.2865 24.2614 46.3912 23.4156 48.0829 21.3269C49.0841 20.1445 50.3873 21.4219 49.6278 22.4662C47.4442 25.4094 44.9758 26.8162 42.4814 26.8162Z" fill="white"/>
<path d="M19.9375 26.8162C17.2533 26.8162 16.2608 23.2603 17.4605 19.0829C19.7563 11.1339 28.4131 6.53359 33.7211 7.83685C34.5755 8.05263 34.8 8.59637 34.5497 9.38178C32.9184 15.0436 31.9431 18.5478 31.1232 21.4046C30.7607 22.6561 31.6238 23.5019 33.0392 21.3615C33.7815 20.3344 35.3092 21.2752 34.6273 22.4403C32.6595 25.7977 31.0196 26.8162 29.3711 26.8162C28.1801 26.8162 27.1789 25.9963 27.1012 24.4945C27.0926 24.0111 27.1875 23.6055 27.3342 22.9841C27.4723 22.2418 26.7473 22.026 26.2813 22.5784C24.2185 25.0727 22.2765 26.8162 19.9375 26.8162ZM21.4997 18.0472C20.5503 21.3356 20.4813 23.735 21.845 23.735C23.692 23.7436 26.6438 20.2481 28.9223 15.6305C29.5178 14.4395 30.0616 12.8687 30.3464 11.8588C30.7089 10.6505 30.3896 10.1758 29.3797 10.0809C26.4798 9.76154 23.1655 12.2731 21.4997 18.0472Z" fill="white"/>
<path d="M1.89898 35.7837C-1.001 34.7307 1.31208 30.7519 3.84093 32.5989C5.66205 34.0144 6.2921 33.6087 7.94924 28.4647C9.19208 24.5808 10.4522 19.6871 12.1007 13.3865C12.5581 11.6172 11.4965 11.3237 10.2278 13.0758C9.51143 13.9216 8.02691 13.1017 8.76917 11.8847C10.8924 8.44101 12.9379 7.55203 14.2239 7.55203C16.701 7.55203 16.3039 10.4348 15.6135 13.1103C14.5864 17.1755 13.2141 22.0951 12.0058 26.0653C9.52869 34.3855 4.62634 36.7935 1.89898 35.7837ZM13.2055 2.58064C13.2055 1.12202 14.3706 0 15.812 0C17.2706 0 18.4271 1.12202 18.4271 2.58064C18.4271 4.03063 17.2706 5.18717 15.812 5.18717C14.3706 5.18717 13.2055 4.03063 13.2055 2.58064Z" fill="white"/>
</svg>
