<svg width="75" height="28" viewBox="0 0 75 28" fill="none" xmlns="http://www.w3.org/2000/svg">
<path d="M22.5527 14.8177C18.9185 14.8177 15.9616 17.7746 15.9616 21.4088C15.9616 25.0431 18.9185 28 22.5527 28H22.6188C23.5934 28 24.915 28 26.5999 26.8767C27.0955 26.5463 27.4754 25.9516 27.1781 25.3569C27.0294 25.0596 26.7321 24.8118 26.4017 24.7127C26.22 24.6631 25.9557 24.6466 25.6914 24.8118C24.4029 25.6378 23.2796 25.7369 22.5527 25.7369C20.7191 25.7369 19.0672 24.564 18.456 22.813L18.3568 22.5322H27.9875C28.6152 22.5322 29.1273 22.0366 29.1273 21.4088C29.1273 17.1304 25.7409 14.8177 22.5362 14.8177H22.5527ZM18.3734 20.2525L18.4725 19.9717C19.0837 18.2372 20.7356 17.0808 22.5692 17.0808C24.0725 17.0808 26.0548 17.8407 26.6825 19.9882L26.7651 20.2525H18.3734Z" fill="white"/>
<path d="M37.7669 14.8177C34.1327 14.8177 31.1757 17.7746 31.1757 21.4088V26.8437C31.1757 27.4714 31.6713 27.9835 32.299 27.9835C32.9267 27.9835 33.4388 27.4879 33.4388 26.8437V21.4088C33.4388 19.0301 35.3716 17.0973 37.7504 17.0973C40.1291 17.0973 42.0619 19.0301 42.0619 21.4088V26.8437C42.0619 27.4714 42.5574 27.9835 43.1852 27.9835C43.8129 27.9835 44.325 27.4879 44.325 26.8437V21.4088C44.325 17.7746 41.368 14.8177 37.7338 14.8177H37.7669Z" fill="white"/>
<path d="M51.676 19.9717L56.5987 16.7339C56.8135 16.5522 56.9621 16.2879 56.9787 15.974C57.0117 15.6602 56.9291 15.3628 56.7309 15.1316C56.3344 14.6525 55.6241 14.6029 55.1285 14.9994L48.653 19.2614V15.9245C48.653 15.3133 48.1244 14.8012 47.5132 14.8012C46.902 14.8012 46.3899 15.2968 46.3899 15.9245V26.7776C46.3899 27.4218 46.8855 27.9174 47.5132 27.9174C48.1409 27.9174 48.653 27.4053 48.653 26.7776V21.9375L49.7433 21.2106L54.9964 27.5209C55.1946 27.7852 55.5085 27.9339 55.8719 27.9339C56.1197 27.9339 56.384 27.8348 56.5657 27.6531C57.0447 27.2566 57.1108 26.5463 56.7309 26.0673L51.6595 19.9717H51.676Z" fill="white"/>
<path d="M64.115 14.8673C60.3981 14.8673 57.4742 17.7912 57.4742 21.508C57.4742 25.2248 60.3321 27.9504 64.115 27.9504C65.6843 27.9504 66.9232 27.5375 67.9804 26.6454L68.3273 26.3646V26.8106C68.3273 27.4714 68.9881 27.9504 69.4176 27.9504C70.0949 27.9504 70.5574 27.4714 70.5574 26.8106V21.508C70.5574 17.7251 67.7822 14.8673 64.115 14.8673ZM64.115 25.7204C61.6866 25.7204 59.7209 23.8372 59.7209 21.508C59.7209 19.1788 61.7362 17.1139 64.115 17.1139C66.4937 17.1139 68.3273 19.0962 68.3273 21.508C68.3273 23.9198 66.5102 25.7204 64.115 25.7204Z" fill="white"/>
<path d="M73.6796 14.8342C73.0518 14.8342 72.5397 15.3298 72.5397 15.9575V26.8602C72.5397 27.5044 73.0353 28 73.6796 28C74.3238 28 74.8028 27.5044 74.8028 26.8602V15.9575C74.8028 15.3463 74.3073 14.8342 73.6796 14.8342Z" fill="white"/>
<path d="M12.8725 20.3351H7.86716C7.25595 20.3351 6.79342 20.8142 6.79342 21.4088C6.79342 22.0035 7.27247 22.4826 7.86716 22.4826H11.6831L11.6005 22.7469C11.0223 24.5475 9.28781 25.8029 7.38811 25.8029C4.95979 25.8029 2.99401 23.8372 2.99401 21.4088C2.99401 18.9805 4.95979 17.0148 7.37159 16.9982C8.8418 16.9982 9.98162 17.5434 10.9563 18.6997C11.3857 19.1953 11.9639 19.3274 12.443 19.0631C12.7073 18.9145 12.922 18.6336 12.9716 18.3198C13.0211 18.0555 12.9716 17.7746 12.8064 17.5599C11.4683 15.7758 9.65124 14.8507 7.52026 14.8507C6.57867 14.8507 5.68663 14.9994 4.81112 15.3628C4.03472 15.7097 3.34091 16.1888 2.74622 16.7835C2.15153 17.3782 1.67248 18.0885 1.32557 18.8649C0.99519 19.6743 0.813477 20.5333 0.813477 21.4254C0.813477 22.3174 0.978671 23.1599 1.32557 23.9858C1.67248 24.7622 2.13501 25.456 2.74622 26.0507C3.34091 26.6454 4.03472 27.1245 4.82764 27.4714C6.46303 28.1487 8.3297 28.1487 9.94858 27.4714C10.725 27.1245 11.4188 26.6454 12.0135 26.0507C12.6082 25.456 13.0872 24.7457 13.4341 23.9693C13.7645 23.1599 13.9462 22.3009 13.9462 21.4254C13.9462 20.8307 13.4672 20.3516 12.8725 20.3516V20.3351Z" fill="white"/>
<path d="M1.47425 12.6702V0.0165196H4.95979V4.75752H8.90787C9.38693 4.75752 9.79991 4.60885 10.1468 4.29498C10.4772 3.98112 10.6589 3.6177 10.6589 3.1882V0.0165196H14.1445V3.1882C14.1445 4.3941 13.6984 5.45133 12.8229 6.34336C13.715 7.25192 14.1445 8.30914 14.1445 9.51504V12.6702H10.6589V9.51504C10.6589 9.08554 10.4937 8.7056 10.1468 8.39174C9.79991 8.07787 9.40345 7.9292 8.90787 7.9292H4.95979V12.6702H1.47425Z" fill="white"/>
<path d="M34.0501 12.6702V0.0165196H37.5356V12.6702H34.0501Z" fill="white"/>
<path d="M38.4772 12.6702V4.75752C38.4772 3.45251 38.9893 2.3292 39.997 1.40413C41.0211 0.479057 42.2436 0.0165196 43.6807 0.0165196H50.8005C52.2377 0.0165196 53.4766 0.479057 54.5008 1.40413C55.525 2.3292 56.0206 3.45251 56.0206 4.75752V7.91269C56.0206 9.2177 55.5085 10.341 54.5008 11.2661C53.4766 12.1911 52.2542 12.6537 50.8005 12.6537H42.7391V9.49852H50.8005C51.2796 9.49852 51.6925 9.34985 52.0394 9.03599C52.3698 8.72213 52.5515 8.3587 52.5515 7.9292V4.77404C52.5515 4.34454 52.3863 3.9646 52.0394 3.65074C51.7091 3.33687 51.2961 3.1882 50.8005 3.1882H43.6807C43.2017 3.1882 42.7887 3.33687 42.4418 3.65074C42.1114 3.9646 41.9297 4.32802 41.9297 4.77404V12.6867H38.4442L38.4772 12.6702Z" fill="white"/>
<path d="M29.6725 12.6702V4.75752C29.6725 4.32803 29.5073 3.94808 29.1604 3.63422C28.83 3.32036 28.417 3.17168 27.9214 3.17168H20.8017C20.3226 3.17168 19.9096 3.32036 19.5627 3.63422C19.2324 3.94808 19.0506 4.31151 19.0506 4.75752V7.91269C19.0506 8.34218 19.2158 8.72212 19.5627 9.01947C19.8931 9.33333 20.3061 9.48201 20.8017 9.48201H28.863V12.6372H20.8017C19.3645 12.6372 18.1256 12.1746 17.1014 11.2496C16.0772 10.3245 15.5816 9.20118 15.5816 7.89616V4.741C15.5816 3.43599 16.0937 2.31268 17.1014 1.38761C18.1256 0.462537 19.348 0 20.8017 0H27.9214C29.3586 0 30.5975 0.462537 31.6052 1.38761C32.6294 2.31268 33.125 3.43599 33.125 4.741V12.6537H29.6394L29.6725 12.6702Z" fill="white"/>
<path d="M56.6648 6.34336C56.6648 2.13097 58.6141 0.0165196 62.5126 0.0165196H69.1533C73.0518 0.0165196 75.0011 2.13097 75.0011 6.34336C75.0011 10.5558 73.0518 12.6702 69.1533 12.6702H62.5126C58.6141 12.6702 56.6648 10.5558 56.6648 6.34336ZM60.8111 3.93157C60.3651 4.42714 60.1503 5.23658 60.1503 6.34336C60.1503 7.45015 60.3651 8.25959 60.8111 8.75516C61.2571 9.25074 61.8188 9.51504 62.5126 9.51504H69.1533C69.8471 9.51504 70.4253 9.26726 70.8548 8.75516C71.3008 8.25959 71.5155 7.45015 71.5155 6.34336C71.5155 5.23658 71.3008 4.42714 70.8548 3.93157C70.4088 3.43599 69.8471 3.1882 69.1533 3.1882H62.5126C61.8188 3.1882 61.2406 3.43599 60.8111 3.93157Z" fill="white"/>
</svg>
