<svg width="146" height="24" viewBox="0 0 146 24" fill="none" xmlns="http://www.w3.org/2000/svg">
<path d="M2.39582 20V6.01143H5.76953V9.38514H5.85182V20H2.39582ZM5.85182 12.704L5.49525 9.38514C5.82439 8.19657 6.38211 7.29143 7.16839 6.66971C7.95468 6.048 8.89639 5.73714 9.99353 5.73714C10.3775 5.73714 10.6518 5.77371 10.8164 5.84686V9.11086C10.725 9.07429 10.597 9.056 10.4324 9.056C10.2678 9.03771 10.0667 9.02857 9.82896 9.02857C8.49411 9.02857 7.49753 9.32114 6.83925 9.90628C6.18096 10.4914 5.85182 11.424 5.85182 12.704ZM21.1863 20C21.0949 19.6343 21.0217 19.232 20.9669 18.7931C20.9303 18.3543 20.912 17.824 20.912 17.2023H20.8023V10.5646C20.8023 9.83314 20.592 9.28457 20.1715 8.91886C19.7692 8.53486 19.1475 8.34286 18.3063 8.34286C17.4835 8.34286 16.8252 8.49829 16.3315 8.80914C15.856 9.10171 15.5635 9.53143 15.4537 10.0983H12.1349C12.2812 8.8 12.9029 7.74857 14 6.944C15.0972 6.13943 16.5692 5.73714 18.416 5.73714C20.336 5.73714 21.7897 6.176 22.7772 7.05371C23.7646 7.91314 24.2583 9.184 24.2583 10.8663V17.2023C24.2583 17.6411 24.2857 18.0891 24.3406 18.5463C24.4137 19.0034 24.5143 19.488 24.6423 20H21.1863ZM16.3315 20.2743C14.9235 20.2743 13.7989 19.9269 12.9577 19.232C12.1349 18.5189 11.7235 17.568 11.7235 16.3794C11.7235 15.0994 12.1897 14.0846 13.1223 13.3349C14.0549 12.5851 15.3715 12.0823 17.072 11.8263L21.4332 11.168V13.3623L17.648 13.9383C16.8252 14.0663 16.2035 14.2949 15.7829 14.624C15.3806 14.9531 15.1795 15.4103 15.1795 15.9954C15.1795 16.5257 15.3715 16.9371 15.7555 17.2297C16.1395 17.504 16.6697 17.6411 17.3463 17.6411C18.3337 17.6411 19.1566 17.3943 19.8149 16.9006C20.4732 16.4069 20.8023 15.8034 20.8023 15.0903L21.1863 17.2023C20.8206 18.208 20.2172 18.976 19.376 19.5063C18.5532 20.0183 17.5383 20.2743 16.3315 20.2743ZM30.7128 20L25.1174 6.01143H28.8477L33.3185 18.8754H31.4808L35.9517 6.01143H39.5722L33.9494 20H30.7128ZM49.4388 20C49.3474 19.6343 49.2742 19.232 49.2194 18.7931C49.1828 18.3543 49.1645 17.824 49.1645 17.2023H49.0548V10.5646C49.0548 9.83314 48.8445 9.28457 48.424 8.91886C48.0217 8.53486 47.4 8.34286 46.5588 8.34286C45.736 8.34286 45.0777 8.49829 44.584 8.80914C44.1085 9.10171 43.816 9.53143 43.7062 10.0983H40.3874C40.5337 8.8 41.1554 7.74857 42.2525 6.944C43.3497 6.13943 44.8217 5.73714 46.6685 5.73714C48.5885 5.73714 50.0422 6.176 51.0297 7.05371C52.0171 7.91314 52.5108 9.184 52.5108 10.8663V17.2023C52.5108 17.6411 52.5382 18.0891 52.5931 18.5463C52.6662 19.0034 52.7668 19.488 52.8948 20H49.4388ZM44.584 20.2743C43.176 20.2743 42.0514 19.9269 41.2102 19.232C40.3874 18.5189 39.976 17.568 39.976 16.3794C39.976 15.0994 40.4422 14.0846 41.3748 13.3349C42.3074 12.5851 43.624 12.0823 45.3245 11.8263L49.6857 11.168V13.3623L45.9005 13.9383C45.0777 14.0663 44.456 14.2949 44.0354 14.624C43.6331 14.9531 43.432 15.4103 43.432 15.9954C43.432 16.5257 43.624 16.9371 44.008 17.2297C44.392 17.504 44.9222 17.6411 45.5988 17.6411C46.5862 17.6411 47.4091 17.3943 48.0674 16.9006C48.7257 16.4069 49.0548 15.8034 49.0548 15.0903L49.4388 17.2023C49.0731 18.208 48.4697 18.976 47.6285 19.5063C46.8057 20.0183 45.7908 20.2743 44.584 20.2743ZM55.874 20V6.01143H59.2477V9.38514H59.33V20H55.874ZM59.33 12.704L58.9735 9.38514C59.3026 8.19657 59.8603 7.29143 60.6466 6.66971C61.4329 6.048 62.3746 5.73714 63.4717 5.73714C63.8557 5.73714 64.13 5.77371 64.2946 5.84686V9.11086C64.2032 9.07429 64.0752 9.056 63.9106 9.056C63.746 9.03771 63.5449 9.02857 63.3072 9.02857C61.9723 9.02857 60.9757 9.32114 60.3175 9.90628C59.6592 10.4914 59.33 11.424 59.33 12.704ZM72.1915 20.2743C70.7835 20.2743 69.54 19.9634 68.4612 19.3417C67.4006 18.72 66.5595 17.8606 65.9377 16.7634C65.3343 15.648 65.0326 14.3863 65.0326 12.9783C65.0326 11.5703 65.3343 10.3269 65.9377 9.248C66.5595 8.15086 67.4006 7.29143 68.4612 6.66971C69.54 6.048 70.7835 5.73714 72.1915 5.73714C73.3435 5.73714 74.3857 5.95657 75.3183 6.39543C76.2509 6.816 77.0189 7.41943 77.6223 8.20571C78.2257 8.97371 78.6097 9.86971 78.7743 10.8937H75.4555C75.2543 10.144 74.8703 9.55886 74.3035 9.13828C73.7366 8.71771 73.0509 8.50743 72.2463 8.50743C71.4966 8.50743 70.8475 8.69028 70.2989 9.056C69.7686 9.42171 69.3572 9.94286 69.0646 10.6194C68.772 11.296 68.6257 12.0823 68.6257 12.9783C68.6257 13.8926 68.772 14.688 69.0646 15.3646C69.3572 16.0411 69.7777 16.5714 70.3263 16.9554C70.8749 17.3211 71.5149 17.504 72.2463 17.504C73.0509 17.504 73.7366 17.2937 74.3035 16.8731C74.8703 16.4526 75.2543 15.8674 75.4555 15.1177H78.7743C78.6097 16.1417 78.2166 17.0469 77.5949 17.8331C76.9915 18.6011 76.2235 19.2046 75.2909 19.6434C74.3766 20.064 73.3435 20.2743 72.1915 20.2743ZM81.1265 20V0.251428H84.5825V20H81.1265ZM90.946 20V11.168C90.946 10.3086 90.7265 9.65943 90.2877 9.22057C89.8488 8.78171 89.2088 8.56228 88.3677 8.56228C87.6362 8.56228 86.978 8.72686 86.3928 9.056C85.826 9.38514 85.378 9.84229 85.0488 10.4274C84.738 11.0126 84.5825 11.6891 84.5825 12.4571L84.226 9.11086C84.7014 8.08686 85.3962 7.27314 86.3105 6.66971C87.2248 6.048 88.322 5.73714 89.602 5.73714C91.1197 5.73714 92.2991 6.16686 93.1402 7.02629C93.9997 7.88571 94.4294 9.02857 94.4294 10.4549V20H90.946ZM104.065 20.2743C102.584 20.2743 101.286 19.9634 100.17 19.3417C99.0732 18.72 98.2137 17.8606 97.592 16.7634C96.9886 15.6663 96.6869 14.4046 96.6869 12.9783C96.6869 11.552 96.9886 10.2994 97.592 9.22057C98.2137 8.12343 99.0732 7.27314 100.17 6.66971C101.267 6.048 102.547 5.73714 104.01 5.73714C105.4 5.73714 106.607 6.02971 107.631 6.61486C108.655 7.18171 109.45 7.98629 110.017 9.02857C110.584 10.0709 110.867 11.2869 110.867 12.6766C110.867 12.9326 110.858 13.1703 110.84 13.3897C110.822 13.6091 110.794 13.8286 110.758 14.048H98.8263V11.6343H108.097L107.384 12.2926C107.384 10.976 107.082 9.98857 106.479 9.33028C105.875 8.672 105.034 8.34286 103.955 8.34286C102.785 8.34286 101.853 8.74514 101.158 9.54971C100.481 10.3543 100.143 11.5154 100.143 13.0331C100.143 14.5326 100.481 15.6846 101.158 16.4891C101.853 17.2754 102.831 17.6686 104.093 17.6686C104.824 17.6686 105.464 17.5314 106.013 17.2571C106.561 16.9829 106.963 16.5623 107.219 15.9954H110.483C110.026 17.312 109.249 18.3543 108.152 19.1223C107.073 19.8903 105.711 20.2743 104.065 20.2743ZM119.867 20.2743C118.386 20.2743 117.079 19.9634 115.945 19.3417C114.83 18.72 113.961 17.8606 113.339 16.7634C112.718 15.648 112.407 14.3771 112.407 12.9509C112.407 11.5246 112.718 10.272 113.339 9.19314C113.961 8.11429 114.83 7.27314 115.945 6.66971C117.079 6.048 118.386 5.73714 119.867 5.73714C121.367 5.73714 122.674 6.048 123.79 6.66971C124.905 7.27314 125.774 8.11429 126.395 9.19314C127.017 10.272 127.328 11.5246 127.328 12.9509C127.328 14.3771 127.008 15.648 126.368 16.7634C125.746 17.8606 124.878 18.72 123.762 19.3417C122.647 19.9634 121.349 20.2743 119.867 20.2743ZM119.867 17.504C120.599 17.504 121.257 17.3211 121.842 16.9554C122.427 16.5714 122.885 16.0411 123.214 15.3646C123.543 14.6697 123.707 13.856 123.707 12.9234C123.707 11.552 123.342 10.4731 122.61 9.68686C121.897 8.90057 120.983 8.50743 119.867 8.50743C118.752 8.50743 117.829 8.90057 117.097 9.68686C116.366 10.4731 116 11.552 116 12.9234C116 13.856 116.165 14.6697 116.494 15.3646C116.841 16.0411 117.298 16.5714 117.865 16.9554C118.45 17.3211 119.118 17.504 119.867 17.504ZM129.733 20V6.01143H133.107V9.30286H133.189V20H129.733ZM139.552 20V11.168C139.552 10.3086 139.333 9.65943 138.894 9.22057C138.455 8.78171 137.815 8.56228 136.974 8.56228C136.243 8.56228 135.584 8.72686 134.999 9.056C134.432 9.38514 133.984 9.84229 133.655 10.4274C133.344 11.0126 133.189 11.6891 133.189 12.4571L132.832 9.11086C133.308 8.08686 134.003 7.27314 134.917 6.66971C135.831 6.048 136.928 5.73714 138.208 5.73714C139.726 5.73714 140.906 6.16686 141.747 7.02629C142.606 7.88571 143.036 9.02857 143.036 10.4549V20H139.552Z" fill="white"/>
</svg>
