<svg width="186" height="16" viewBox="0 0 186 16" fill="none" xmlns="http://www.w3.org/2000/svg">
<path d="M0 15.736V0H6.13597C7.29065 0 8.28691 0.20418 9.12475 0.612541C9.96964 1.0209 10.6209 1.60176 11.0785 2.35512C11.5362 3.10847 11.765 3.99912 11.765 5.02706C11.765 6.04796 11.5221 6.93157 11.0363 7.67789C10.5575 8.4242 9.88163 9.00154 9.00858 9.4099C8.14257 9.81122 7.12519 10.0119 5.95644 10.0119H1.64752V7.70957H5.99868C6.61826 7.70957 7.15336 7.60044 7.60396 7.38218C8.05457 7.16392 8.40308 6.85413 8.64951 6.45281C8.89593 6.05149 9.01914 5.57624 9.01914 5.02706C9.01914 4.47789 8.89593 4.00616 8.64951 3.61188C8.40308 3.2176 8.05457 2.91133 7.60396 2.69307C7.15336 2.47481 6.61122 2.36568 5.97756 2.36568H2.78812V15.736H0ZM8.98746 15.736L5.32277 8.63894H8.32211L12.0607 15.736H8.98746Z" fill="white"/>
<path d="M16.8529 15.9155C16.1136 15.9155 15.4518 15.7923 14.8674 15.5459C14.2901 15.2995 13.8324 14.9263 13.4945 14.4264C13.1636 13.9265 12.9981 13.3069 12.9981 12.5677C12.9981 11.934 13.1178 11.413 13.3572 11.0046C13.5966 10.5892 13.9205 10.2583 14.3288 10.0119C14.7372 9.76546 15.2054 9.57888 15.7334 9.45215C16.2615 9.31837 16.8107 9.22332 17.381 9.167C18.071 9.08955 18.6166 9.02266 19.0179 8.96634C19.4263 8.90297 19.7185 8.81496 19.8945 8.70231C20.0705 8.58262 20.1585 8.39604 20.1585 8.14257V8.05809C20.1585 7.73421 20.0776 7.45259 19.9156 7.2132C19.7537 6.96678 19.5178 6.77668 19.208 6.6429C18.9053 6.50209 18.5427 6.43168 18.1202 6.43168C17.6908 6.43168 17.3106 6.50209 16.9796 6.6429C16.6558 6.77668 16.3988 6.96678 16.2087 7.2132C16.0186 7.45259 15.9095 7.73069 15.8813 8.04753H13.315C13.3642 7.30825 13.586 6.66403 13.9803 6.11485C14.3816 5.55864 14.9378 5.12915 15.649 4.8264C16.3601 4.51661 17.2014 4.36172 18.173 4.36172C18.8982 4.36172 19.546 4.44973 20.1163 4.62574C20.6936 4.79472 21.1794 5.04466 21.5737 5.37558C21.975 5.70649 22.2778 6.10429 22.482 6.56898C22.6932 7.03366 22.7988 7.55468 22.7988 8.13201V15.736H20.1796V14.1624H20.1374C19.9614 14.4933 19.7326 14.7925 19.4509 15.0601C19.1693 15.3206 18.8173 15.5283 18.3948 15.6832C17.9724 15.8381 17.4584 15.9155 16.8529 15.9155ZM17.5077 13.9406C18.0921 13.9406 18.5814 13.835 18.9757 13.6238C19.37 13.4125 19.6657 13.1309 19.8628 12.7789C20.067 12.4268 20.1691 12.0361 20.1691 11.6066V10.4026C20.0846 10.4519 19.9614 10.5012 19.7994 10.5505C19.6375 10.5998 19.4439 10.6491 19.2186 10.6984C19.0003 10.7406 18.7609 10.7828 18.5004 10.8251C18.247 10.8673 17.9829 10.9096 17.7084 10.9518C17.3282 11.0011 16.9761 11.0891 16.6523 11.2158C16.3354 11.3355 16.0784 11.5045 15.8813 11.7228C15.6912 11.934 15.5961 12.2086 15.5961 12.5465C15.5961 12.8352 15.6736 13.0851 15.8285 13.2964C15.9904 13.5076 16.2122 13.6695 16.4938 13.7822C16.7825 13.8878 17.1205 13.9406 17.5077 13.9406Z" fill="white"/>
<path d="M29.418 16C28.5168 16 27.7071 15.8592 26.989 15.5776C26.2708 15.2889 25.6935 14.87 25.257 14.3208C24.8205 13.7646 24.574 13.0887 24.5177 12.2931H27.1474C27.2037 12.8352 27.422 13.2576 27.8022 13.5604C28.1894 13.8561 28.714 14.004 29.3758 14.004C30.0165 14.004 30.5199 13.8772 30.886 13.6238C31.2592 13.3703 31.4458 13.0464 31.4458 12.6521C31.4458 12.3142 31.3085 12.0431 31.0339 11.8389C30.7663 11.6348 30.3967 11.4834 29.925 11.3848L28.024 10.9941C26.9538 10.7688 26.1441 10.385 25.5949 9.8429C25.0458 9.30077 24.7712 8.61078 24.7712 7.77294C24.7712 7.08999 24.9542 6.49153 25.3203 5.97756C25.6935 5.46359 26.2145 5.06227 26.8834 4.7736C27.5593 4.48493 28.3514 4.34059 29.2596 4.34059C30.1608 4.34059 30.9529 4.49197 31.6359 4.79472C32.3258 5.09747 32.8645 5.52695 33.2517 6.08317C33.646 6.63234 33.8537 7.29065 33.8748 8.05809H31.3718C31.3648 7.5582 31.1712 7.14631 30.791 6.82244C30.4178 6.49857 29.9285 6.33663 29.323 6.33663C28.7386 6.33663 28.2774 6.46689 27.9395 6.72739C27.6015 6.9879 27.4326 7.30825 27.4326 7.68845C27.4326 8.01936 27.5628 8.29043 27.8233 8.50165C28.0838 8.70583 28.4464 8.86073 28.9111 8.96634L30.9177 9.37822C32.0231 9.61056 32.8363 9.97668 33.3573 10.4766C33.8854 10.9765 34.1494 11.6348 34.1494 12.4515C34.1494 13.1767 33.9452 13.8068 33.5368 14.3419C33.1355 14.87 32.5793 15.2783 31.8682 15.567C31.1571 15.8557 30.3404 16 29.418 16Z" fill="white"/>
<path d="M35.8577 15.736V4.5835H38.4346V7.01254H38.234C38.4382 6.42112 38.7163 5.92827 39.0683 5.53399C39.4274 5.13971 39.8393 4.84752 40.3039 4.65743C40.7757 4.46029 41.272 4.36172 41.7931 4.36172C42.652 4.36172 43.3913 4.60814 44.0109 5.10099C44.6305 5.5868 45.0107 6.22398 45.1515 7.01254H44.803C44.9508 6.48449 45.2008 6.02332 45.5528 5.62904C45.9119 5.22772 46.3484 4.91793 46.8624 4.69967C47.3763 4.47437 47.9396 4.36172 48.5521 4.36172C49.2562 4.36172 49.8899 4.51309 50.4531 4.81584C51.0164 5.11859 51.4635 5.5692 51.7944 6.16766C52.1253 6.76612 52.2908 7.50187 52.2908 8.37492V15.736H49.6188V8.75512C49.6188 8.02288 49.4146 7.48427 49.0063 7.13927C48.6049 6.79428 48.1191 6.62178 47.5488 6.62178C47.1053 6.62178 46.718 6.72035 46.3871 6.91749C46.0632 7.10759 45.8098 7.37162 45.6267 7.70957C45.4507 8.04753 45.3627 8.4418 45.3627 8.89241V15.736H42.7752V8.62838C42.7752 8.02288 42.5851 7.53707 42.2049 7.17096C41.8247 6.80484 41.3389 6.62178 40.7475 6.62178C40.3532 6.62178 39.9836 6.71683 39.6386 6.90693C39.3006 7.08999 39.0296 7.36458 38.8254 7.73069C38.6212 8.09681 38.5191 8.54741 38.5191 9.08251V15.736H35.8577Z" fill="white"/>
<path d="M58.5192 15.9578C57.7448 15.9578 57.0583 15.7923 56.4598 15.4614C55.8614 15.1234 55.3932 14.6271 55.0552 13.9723C54.7173 13.3105 54.5483 12.5043 54.5483 11.5538V4.5835H57.2097V11.1314C57.2097 11.9481 57.4068 12.5677 57.8011 12.9901C58.2024 13.4125 58.7551 13.6238 59.4592 13.6238C59.9309 13.6238 60.3498 13.5287 60.7159 13.3386C61.0821 13.1485 61.3707 12.8528 61.5819 12.4515C61.7932 12.0431 61.8988 11.5221 61.8988 10.8884V4.5835H64.5707V15.736H61.9516V12.895H62.4691C62.11 13.8878 61.6031 14.6482 60.9483 15.1762C60.3005 15.6973 59.4909 15.9578 58.5192 15.9578Z" fill="white"/>
<path d="M71.2111 16C70.3099 16 69.5002 15.8592 68.782 15.5776C68.0639 15.2889 67.4866 14.87 67.05 14.3208C66.6135 13.7646 66.3671 13.0887 66.3108 12.2931H68.9405C68.9968 12.8352 69.215 13.2576 69.5952 13.5604C69.9825 13.8561 70.507 14.004 71.1688 14.004C71.8095 14.004 72.313 13.8772 72.6791 13.6238C73.0522 13.3703 73.2388 13.0464 73.2388 12.6521C73.2388 12.3142 73.1015 12.0431 72.8269 11.8389C72.5594 11.6348 72.1897 11.4834 71.718 11.3848L69.817 10.9941C68.7468 10.7688 67.9372 10.385 67.388 9.8429C66.8388 9.30077 66.5642 8.61078 66.5642 7.77294C66.5642 7.08999 66.7473 6.49153 67.1134 5.97756C67.4866 5.46359 68.0076 5.06227 68.6764 4.7736C69.3523 4.48493 70.1444 4.34059 71.0527 4.34059C71.9539 4.34059 72.746 4.49197 73.4289 4.79472C74.1189 5.09747 74.6575 5.52695 75.0448 6.08317C75.439 6.63234 75.6467 7.29065 75.6679 8.05809H73.1649C73.1578 7.5582 72.9642 7.14631 72.584 6.82244C72.2109 6.49857 71.7215 6.33663 71.116 6.33663C70.5317 6.33663 70.0705 6.46689 69.7325 6.72739C69.3946 6.9879 69.2256 7.30825 69.2256 7.68845C69.2256 8.01936 69.3559 8.29043 69.6164 8.50165C69.8769 8.70583 70.2395 8.86073 70.7042 8.96634L72.7108 9.37822C73.8161 9.61056 74.6294 9.97668 75.1504 10.4766C75.6784 10.9765 75.9424 11.6348 75.9424 12.4515C75.9424 13.1767 75.7383 13.8068 75.3299 14.3419C74.9286 14.87 74.3724 15.2783 73.6613 15.567C72.9501 15.8557 72.1334 16 71.2111 16Z" fill="white"/>
<path d="M81.3974 15.736L87.0159 0H90.5222L96.1196 15.736H93.0463L90.2899 7.46667C90.0153 6.59362 89.7266 5.66777 89.4238 4.68911C89.1211 3.70341 88.7761 2.54169 88.3889 1.20396H89.1598C88.7726 2.54169 88.4241 3.70341 88.1143 4.68911C87.8115 5.66777 87.5158 6.59362 87.2271 7.46667L84.3968 15.736H81.3974ZM84.7347 11.9762V9.68449H92.7823V11.9762H84.7347Z" fill="white"/>
<path d="M99.9929 9.43102V15.736H97.3315V4.5835H99.9507V7.42442H99.4332C99.7923 6.42464 100.296 5.66425 100.943 5.14323C101.598 4.62222 102.408 4.36172 103.372 4.36172C104.154 4.36172 104.844 4.53069 105.442 4.86865C106.041 5.19956 106.509 5.69241 106.847 6.34719C107.185 7.00198 107.354 7.80814 107.354 8.76568V15.736H104.682V9.18812C104.682 8.3714 104.485 7.75182 104.091 7.32937C103.703 6.90693 103.151 6.69571 102.433 6.69571C101.968 6.69571 101.552 6.79076 101.186 6.98086C100.82 7.17096 100.528 7.46667 100.31 7.86799C100.099 8.26931 99.9929 8.79032 99.9929 9.43102Z" fill="white"/>
<path d="M113.931 15.9578C112.966 15.9578 112.118 15.7149 111.386 15.229C110.661 14.7432 110.097 14.0638 109.696 13.1908C109.302 12.3177 109.105 11.3039 109.105 10.1492C109.105 9.00858 109.305 8.00176 109.707 7.12871C110.108 6.25567 110.671 5.57624 111.396 5.09043C112.122 4.60462 112.959 4.36172 113.91 4.36172C114.396 4.36172 114.846 4.4286 115.262 4.56238C115.684 4.68911 116.064 4.88625 116.402 5.1538C116.74 5.42134 117.029 5.7593 117.268 6.16766H117.289V0H119.951V15.736H117.332V14.0356H117.311C117.078 14.4651 116.79 14.8242 116.445 15.1129C116.107 15.3945 115.723 15.6057 115.293 15.7465C114.871 15.8873 114.417 15.9578 113.931 15.9578ZM114.554 13.7294C115.138 13.7294 115.645 13.585 116.075 13.2964C116.504 13.0007 116.839 12.5853 117.078 12.0502C117.318 11.508 117.437 10.8744 117.437 10.1492C117.437 9.42398 117.318 8.79384 117.078 8.25875C116.839 7.72365 116.504 7.30825 116.075 7.01254C115.645 6.71683 115.138 6.56898 114.554 6.56898C114.012 6.56898 113.533 6.70979 113.118 6.99142C112.702 7.26601 112.379 7.67085 112.146 8.20594C111.914 8.73399 111.798 9.38174 111.798 10.1492C111.798 10.9166 111.914 11.5679 112.146 12.103C112.379 12.6381 112.702 13.0429 113.118 13.3175C113.533 13.5921 114.012 13.7294 114.554 13.7294Z" fill="white"/>
<path d="M127.13 15.9894C126.017 15.9894 125.053 15.7395 124.236 15.2396C123.419 14.7397 122.789 14.0532 122.346 13.1802C121.909 12.3001 121.691 11.2968 121.691 10.1703C121.691 9.03674 121.916 8.02992 122.367 7.14984C122.824 6.26975 123.455 5.57976 124.257 5.07987C125.06 4.57998 125.982 4.33003 127.024 4.33003C127.827 4.33003 128.556 4.47085 129.21 4.75248C129.865 5.0341 130.428 5.43542 130.9 5.95644C131.372 6.47041 131.734 7.08295 131.988 7.79406C132.241 8.49813 132.368 9.27613 132.368 10.1281V10.8568H122.747V9.01914H131.037L129.844 9.51551C129.844 8.88185 129.728 8.33619 129.495 7.87855C129.27 7.4209 128.95 7.06887 128.534 6.82244C128.126 6.56898 127.637 6.44224 127.066 6.44224C126.503 6.44224 126.014 6.56898 125.598 6.82244C125.183 7.06887 124.863 7.4209 124.637 7.87855C124.412 8.33619 124.299 8.88185 124.299 9.51551V10.6667C124.299 11.3074 124.412 11.8706 124.637 12.3564C124.863 12.8422 125.19 13.2189 125.62 13.4865C126.056 13.754 126.581 13.8878 127.193 13.8878C127.637 13.8878 128.031 13.8209 128.376 13.6871C128.721 13.5534 129.01 13.3668 129.242 13.1274C129.474 12.888 129.64 12.6099 129.738 12.2931H132.231C132.09 13.0183 131.78 13.659 131.301 14.2152C130.83 14.7714 130.235 15.2079 129.517 15.5248C128.798 15.8345 128.003 15.9894 127.13 15.9894Z" fill="white"/>
<path d="M134.076 15.736V4.5835H136.643V6.43168H136.674C136.879 5.79098 137.199 5.30517 137.635 4.97426C138.079 4.64334 138.66 4.47789 139.378 4.47789C139.561 4.47789 139.723 4.48141 139.864 4.48845C140.012 4.49549 140.138 4.50605 140.244 4.52013V6.88581C140.153 6.87173 139.987 6.85413 139.748 6.833C139.508 6.81188 139.255 6.80132 138.987 6.80132C138.572 6.80132 138.192 6.89989 137.847 7.09703C137.509 7.28713 137.238 7.5758 137.034 7.96304C136.836 8.35028 136.738 8.83608 136.738 9.42046V15.736H134.076Z" fill="white"/>
<path d="M146.05 16C145.149 16 144.339 15.8592 143.621 15.5776C142.903 15.2889 142.326 14.87 141.889 14.3208C141.453 13.7646 141.206 13.0887 141.15 12.2931H143.779C143.836 12.8352 144.054 13.2576 144.434 13.5604C144.822 13.8561 145.346 14.004 146.008 14.004C146.649 14.004 147.152 13.8772 147.518 13.6238C147.891 13.3703 148.078 13.0464 148.078 12.6521C148.078 12.3142 147.941 12.0431 147.666 11.8389C147.398 11.6348 147.029 11.4834 146.557 11.3848L144.656 10.9941C143.586 10.7688 142.776 10.385 142.227 9.8429C141.678 9.30077 141.403 8.61078 141.403 7.77294C141.403 7.08999 141.586 6.49153 141.952 5.97756C142.326 5.46359 142.847 5.06227 143.515 4.7736C144.191 4.48493 144.983 4.34059 145.892 4.34059C146.793 4.34059 147.585 4.49197 148.268 4.79472C148.958 5.09747 149.497 5.52695 149.884 6.08317C150.278 6.63234 150.486 7.29065 150.507 8.05809H148.004C147.997 7.5582 147.803 7.14631 147.423 6.82244C147.05 6.49857 146.561 6.33663 145.955 6.33663C145.371 6.33663 144.91 6.46689 144.572 6.72739C144.234 6.9879 144.065 7.30825 144.065 7.68845C144.065 8.01936 144.195 8.29043 144.455 8.50165C144.716 8.70583 145.079 8.86073 145.543 8.96634L147.55 9.37822C148.655 9.61056 149.468 9.97668 149.989 10.4766C150.517 10.9765 150.781 11.6348 150.781 12.4515C150.781 13.1767 150.577 13.8068 150.169 14.3419C149.768 14.87 149.211 15.2783 148.5 15.567C147.789 15.8557 146.972 16 146.05 16Z" fill="white"/>
<path d="M156.862 16C155.961 16 155.151 15.8592 154.433 15.5776C153.715 15.2889 153.138 14.87 152.701 14.3208C152.265 13.7646 152.018 13.0887 151.962 12.2931H154.591C154.648 12.8352 154.866 13.2576 155.246 13.5604C155.633 13.8561 156.158 14.004 156.82 14.004C157.461 14.004 157.964 13.8772 158.33 13.6238C158.703 13.3703 158.89 13.0464 158.89 12.6521C158.89 12.3142 158.753 12.0431 158.478 11.8389C158.21 11.6348 157.841 11.4834 157.369 11.3848L155.468 10.9941C154.398 10.7688 153.588 10.385 153.039 9.8429C152.49 9.30077 152.215 8.61078 152.215 7.77294C152.215 7.08999 152.398 6.49153 152.764 5.97756C153.138 5.46359 153.659 5.06227 154.327 4.7736C155.003 4.48493 155.795 4.34059 156.704 4.34059C157.605 4.34059 158.397 4.49197 159.08 4.79472C159.77 5.09747 160.309 5.52695 160.696 6.08317C161.09 6.63234 161.298 7.29065 161.319 8.05809H158.816C158.809 7.5582 158.615 7.14631 158.235 6.82244C157.862 6.49857 157.373 6.33663 156.767 6.33663C156.183 6.33663 155.722 6.46689 155.384 6.72739C155.046 6.9879 154.877 7.30825 154.877 7.68845C154.877 8.01936 155.007 8.29043 155.267 8.50165C155.528 8.70583 155.89 8.86073 156.355 8.96634L158.362 9.37822C159.467 9.61056 160.28 9.97668 160.801 10.4766C161.329 10.9765 161.593 11.6348 161.593 12.4515C161.593 13.1767 161.389 13.8068 160.981 14.3419C160.58 14.87 160.023 15.2783 159.312 15.567C158.601 15.8557 157.784 16 156.862 16Z" fill="white"/>
<path d="M168.287 15.9894C167.195 15.9894 166.234 15.7465 165.403 15.2607C164.58 14.7679 163.935 14.0849 163.471 13.2119C163.013 12.3388 162.784 11.325 162.784 10.1703C162.784 9.01562 163.013 8.00176 163.471 7.12871C163.935 6.24863 164.58 5.56216 165.403 5.06931C166.234 4.57646 167.195 4.33003 168.287 4.33003C169.385 4.33003 170.346 4.57646 171.17 5.06931C171.994 5.56216 172.634 6.24863 173.092 7.12871C173.557 8.00176 173.789 9.01562 173.789 10.1703C173.789 11.325 173.557 12.3388 173.092 13.2119C172.634 14.0849 171.994 14.7679 171.17 15.2607C170.346 15.7465 169.385 15.9894 168.287 15.9894ZM168.287 13.7611C168.857 13.7611 169.35 13.6167 169.765 13.3281C170.188 13.0394 170.511 12.6275 170.737 12.0924C170.969 11.5503 171.085 10.9096 171.085 10.1703C171.085 9.42398 170.969 8.78328 170.737 8.24819C170.511 7.70605 170.188 7.29065 169.765 7.00198C169.35 6.70627 168.857 6.55842 168.287 6.55842C167.716 6.55842 167.22 6.70627 166.798 7.00198C166.375 7.29065 166.048 7.70605 165.815 8.24819C165.59 8.78328 165.477 9.42398 165.477 10.1703C165.477 10.9166 165.59 11.5573 165.815 12.0924C166.048 12.6275 166.375 13.0394 166.798 13.3281C167.22 13.6167 167.716 13.7611 168.287 13.7611Z" fill="white"/>
<path d="M178.19 9.43102V15.736H175.529V4.5835H178.148V7.42442H177.631C177.99 6.42464 178.493 5.66425 179.141 5.14323C179.796 4.62222 180.605 4.36172 181.57 4.36172C182.351 4.36172 183.041 4.53069 183.64 4.86865C184.238 5.19956 184.707 5.69241 185.044 6.34719C185.382 7.00198 185.551 7.80814 185.551 8.76568V15.736H182.879V9.18812C182.879 8.3714 182.682 7.75182 182.288 7.32937C181.901 6.90693 181.348 6.69571 180.63 6.69571C180.165 6.69571 179.75 6.79076 179.384 6.98086C179.018 7.17096 178.725 7.46667 178.507 7.86799C178.296 8.26931 178.19 8.79032 178.19 9.43102Z" fill="white"/>
</svg>
