<svg width="186" height="22" viewBox="0 0 186 22" fill="none" xmlns="http://www.w3.org/2000/svg">
<path d="M4.02834 0H17.9741L18.7944 0.223729L19.9877 0.820339L20.8826 1.64068L21.4046 2.38644L21.7775 3.1322L22.0012 3.95254L22.0758 4.47458V7.38305H19.5402L19.4656 4.54915L19.2419 3.80339L18.7944 3.20678L18.4216 2.90847L17.7504 2.61017L17.3775 2.53559H4.62495L3.87919 2.75932L3.208 3.20678L2.76054 3.87797L2.53681 4.62373L2.46224 9.76949H4.84868V4.84746H17.1538V9.76949H22.0758V17.5254L21.9266 18.4203L21.5538 19.3898L21.0317 20.2102L20.2114 21.0305L19.2419 21.6271L18.1233 22H3.95376L2.98427 21.7017L2.23851 21.3288L1.49275 20.7322L0.82156 19.9864L0.22495 18.7932L0.0012207 17.9729V14.6169H2.46224L2.53681 17.3763L2.76054 18.1966L3.208 18.7932L3.80461 19.2407L4.55037 19.4644H17.5266L18.347 19.1661L19.0182 18.5695L19.391 17.8237L19.4656 17.5254L19.5402 12.3051H17.1538V17.1525H14.6182V7.38305H12.3063V17.1525H9.77071V7.38305H7.38427V17.1525H4.84868V12.3051H0.0012207V4.02712L0.299526 2.98305L0.746983 2.16271L1.34359 1.41695L1.9402 0.894915L2.98427 0.298305L4.02834 0Z" fill="white"/>
<path d="M108.211 2.61017H111.94L112.462 3.65424L113.655 6.33898L115.072 9.39661L116.191 11.8576L117.384 14.4678L118.205 16.3322L118.279 16.4068L119.696 13.3492L120.815 10.8881L122.008 8.27797L123.201 5.59322L124.544 2.68475L124.618 2.61017H128.347V19.3898H126.035L125.961 5.29492L124.767 7.97966L123.35 11.0373L122.157 13.722L121.039 16.1085L119.845 18.7932L119.547 19.3898H117.011L116.489 18.2712L115.072 15.2136L113.879 12.6034L112.686 9.91864L111.269 6.86102L110.598 5.36949L110.523 19.3898H108.211V2.61017Z" fill="white"/>
<path d="M36.0216 2.38644H38.0351L39.9741 2.53559L41.3165 2.8339L42.2114 3.20678L42.9571 3.80339L43.4046 4.47458L43.7029 5.29492L43.8521 6.33898V7.75593H41.4656L41.3165 6.18983L41.0182 5.51864L40.4216 5.07119L39.4521 4.77288L37.5131 4.62373H36.3944L35.0521 4.69831L33.8588 4.92203L33.2622 5.22034L32.8894 5.59322L32.591 6.41356V7.90508L32.8894 8.72542L33.3368 9.09831L34.3063 9.39661L35.4249 9.54576L39.6758 9.84407L41.3165 10.0678L42.5843 10.4407L43.4046 10.9627L44.0012 11.7831L44.2995 12.7525L44.3741 13.2746V15.8847L44.0758 17.078L43.6283 17.8237L42.9571 18.4949L41.7639 19.0915L40.6453 19.3898L39.6012 19.539L38.5572 19.6136H35.5741L33.9334 19.4644L32.591 19.1661L31.8453 18.8678L31.0249 18.2712L30.5029 17.6L30.13 16.7051L29.9809 16.0339L29.9063 15.3627V13.8712H32.3673L32.4419 15.4373L32.6656 16.1831L33.1877 16.7797L33.8588 17.078L35.1266 17.3017L37.2148 17.3763L39.0792 17.3017L40.4216 17.078L41.3165 16.6305L41.6148 16.2576L41.8385 15.7356L41.9131 15.2881V14.1695L41.6894 13.2746L41.391 12.8271L40.9436 12.5288L39.6012 12.2305L36.469 12.0068L34.6046 11.8576L33.1877 11.6339L31.9944 11.261L31.1741 10.739L30.7266 10.2169L30.3538 9.47119L30.13 8.5017L30.0555 7.75593V6.56271L30.2046 5.51864L30.5029 4.62373L30.9504 4.02712L31.4724 3.50508L32.2182 3.05763L33.3368 2.68475L34.8283 2.46102L36.0216 2.38644Z" fill="white"/>
<path d="M142.964 7.5322H145.276L145.35 9.09831L145.798 8.42712L146.394 7.97966L147.066 7.68136L147.737 7.5322H158.252V9.69492L157.73 10.2915L156.91 11.1864L156.388 11.7831L155.567 12.678L153.554 14.9153L152.733 15.8102L152.211 16.4068L151.466 17.2271L158.252 17.3017V19.3898H148.483V17.1525L149.079 16.5559L149.601 15.9593L150.496 14.9898L151.838 13.4983L152.659 12.6034L153.181 12.0068L154.076 11.0373L154.747 10.2915L155.344 9.62034H147.662L146.693 9.84407L146.096 10.2169L145.723 10.6644L145.5 11.1864L145.35 12.0814L145.276 19.3898H142.964V7.5322Z" fill="white"/>
<path d="M57.6487 7.30847H59.1402L60.6317 7.45763L61.6758 7.75593L62.4216 8.12881L63.0927 8.72542L63.5402 9.47119L63.9131 10.6644L64.0622 11.9322V14.2441H54.8148L54.9639 15.7356L55.2622 16.5559L55.6351 17.0034L56.2317 17.3017L56.8283 17.4508L57.4995 17.5254H59.5131L60.7063 17.3017L61.3029 16.9288L61.6012 16.3322L61.7504 15.4373H64.0622L63.9877 16.7051L63.7639 17.5254L63.391 18.1966L62.7944 18.7932L62.0487 19.1661L61.0046 19.4644L59.6622 19.6136H57.3504L56.0826 19.4644L54.9639 19.1661L54.1436 18.7186L53.547 18.1966L53.0995 17.4508L52.8012 16.7051L52.5775 15.5864L52.5029 14.7661V12.2305L52.6521 10.8881L52.9504 9.76949L53.3978 8.94915L53.8453 8.42712L54.6656 7.90508L55.4114 7.60678L56.6046 7.38305L57.6487 7.30847ZM57.3504 9.32203L56.4555 9.47119L55.7097 9.76949L55.1131 10.4407L54.8894 11.1864L54.8148 11.7085V12.3051H61.7504V11.4847L61.6012 10.6644L61.1538 9.91864L60.2588 9.47119L59.3639 9.32203H57.3504Z" fill="white"/>
<path d="M81.5131 7.30847H83.0046L84.4961 7.45763L85.391 7.68136L86.286 8.12881L87.0317 8.8L87.4792 9.62034L87.7775 10.5898L87.9266 11.7085V14.2441H78.6792L78.8283 15.661L79.0521 16.4068L79.3504 16.8542L79.7232 17.1525L80.6927 17.4508L81.3639 17.5254H83.3775L84.5707 17.3017L85.1673 16.9288L85.391 16.6305L85.5402 16.1085L85.6148 15.4373H87.9266V16.2576L87.7775 17.1525L87.4046 18.0475L86.9571 18.5695L86.1368 19.0915L85.2419 19.3898L84.347 19.539L83.5266 19.6136H81.2148L79.947 19.4644L78.8283 19.1661L78.008 18.7186L77.486 18.2712L76.9639 17.4508L76.591 16.3322L76.4419 15.4373L76.3673 14.3932V12.5288L76.5165 11.0373L76.8148 9.84407L77.2622 8.94915L78.008 8.20339L79.0521 7.68136L80.469 7.38305L81.5131 7.30847ZM81.2148 9.32203L80.0961 9.54576L79.4995 9.84407L79.0521 10.3661L78.8283 10.8881L78.6792 11.9322V12.3051H85.6148V11.3356L85.391 10.4407L84.9436 9.84407L84.347 9.54576L83.8249 9.39661L83.2283 9.32203H81.2148Z" fill="white"/>
<path d="M134.984 7.30847H136.55L137.967 7.45763L139.086 7.75593L139.832 8.12881L140.428 8.65085L140.95 9.47119L141.323 10.739L141.472 12.3797V14.2441H132.225L132.374 15.8102L132.672 16.6305L132.822 16.9288L133.12 17.078L133.866 17.3763L134.91 17.5254H136.923L138.116 17.3017L138.713 16.9288L139.011 16.3322L139.161 15.4373H141.398V16.6305L141.174 17.5254L140.727 18.2712L140.055 18.8678L139.235 19.2407L137.893 19.539L137.072 19.6136H134.761L133.418 19.4644L132.15 19.0915L131.33 18.5695L130.733 17.8983L130.286 17.0034L129.988 15.661L129.913 14.9898V12.0068L130.137 10.4407L130.51 9.39661L131.106 8.57627L131.777 8.05424L132.598 7.68136L133.493 7.45763L134.984 7.30847ZM134.761 9.32203L133.567 9.54576L132.822 9.99322L132.449 10.5898L132.225 11.4847V12.3051H139.161L139.086 11.0373L138.788 10.2169L138.191 9.69492L137.669 9.47119L136.774 9.32203H134.761Z" fill="white"/>
<path d="M168.618 7.38305L170.632 7.45763L171.9 7.68136L172.794 8.05424L173.466 8.57627L173.988 9.32203L174.211 9.99322L174.361 11.1119V19.3898H172.049L171.974 18.122L171.527 18.7186L170.93 19.1661L170.035 19.4644L168.916 19.6136H167.052L165.635 19.3898L164.74 19.0169L164.069 18.4949L163.622 17.7492L163.398 17.1525L163.323 16.7051V15.2136L163.547 14.3186L163.994 13.5729L164.666 12.9763L165.486 12.6034L166.381 12.3797L167.872 12.2305H172.049L171.974 11.0373L171.75 10.2915L171.377 9.84407L170.632 9.54576L170.184 9.47119H167.798L166.903 9.69492L166.53 9.91864L166.232 10.2915L166.083 10.739L166.008 11.4102H163.771L163.696 11.3356L163.771 10.1424L164.069 9.17288L164.516 8.57627L165.038 8.12881L165.859 7.75593L166.754 7.5322L167.276 7.45763L168.618 7.38305ZM167.35 14.2441L166.455 14.4678L166.008 14.7661L165.71 15.139L165.635 15.4373V16.4068L165.859 16.9288L166.306 17.3017L166.903 17.5254L167.35 17.6H169.811L170.855 17.3763L171.452 17.0034L171.825 16.5559L172.049 15.8847V14.2441H167.35Z" fill="white"/>
<path d="M175.927 2.61017H178.164V12.0814L179.208 12.0068L179.73 11.4102L180.849 10.2169L183.31 7.5322H185.622V8.12881L185.025 8.72542L184.503 9.32203L183.384 10.5153L182.713 11.261L181.669 12.3797L181.222 12.9017L181.371 13.2746L182.116 14.0949L182.788 14.9153L184.577 17.0034L185.249 17.8237L185.622 18.2712V19.3898H183.683L182.937 18.5695L182.266 17.7492L180.625 15.8102L179.283 14.1695L178.164 14.0949V19.3898H175.852V2.68475L175.927 2.61017Z" fill="white"/>
<path d="M94.5639 7.38305H96.9504L97.9944 7.60678L99.0385 8.12881L99.6351 8.72542L100.083 9.62034L100.306 10.6644V19.3898H98.069L97.9944 12.0814L97.8453 10.9627L97.547 10.2915L97.4724 10.0678L97.1741 9.91864L96.4283 9.62034L96.0555 9.54576H93.8927L92.9978 9.76949L92.4012 10.1424L92.1029 10.5898L91.8792 11.4102L91.8046 19.3898H89.4927V7.5322H91.8046L91.8792 8.87458L92.4012 8.20339L93.0724 7.75593L94.0419 7.45763L94.5639 7.38305Z" fill="white"/>
<path d="M64.2114 7.5322H66.747L68.4622 12.3051L70.0283 16.5559L70.1775 17.2271H70.3266L70.4758 16.5559L71.9673 12.4542L73.3097 8.72542L73.7571 7.5322H76.2182L75.9944 8.27797L72.1165 18.5695L71.8182 19.3898H68.686L68.3877 18.7186L66.747 14.3932L64.7334 9.02373L64.2114 7.5322Z" fill="white"/>
<path d="M45.9402 4.54915H48.2521V7.5322H51.6826V9.47119L51.608 9.54576H48.2521L48.3266 16.4068L48.5504 16.9288L48.9233 17.1525L49.147 17.2271L51.608 17.3017L51.6826 17.3763V19.3898H48.6249L47.4317 19.1661L46.686 18.7186L46.2385 18.0475L46.0148 17.3763L45.9402 16.9288V4.54915Z" fill="white"/>
<path d="M159.818 2.61017H162.13V19.3898H159.818V2.61017Z" fill="white"/>
</svg>
