<svg width="86" height="32" viewBox="0 0 86 32" fill="none" xmlns="http://www.w3.org/2000/svg">
<path d="M11.1764 10.4503L9.46537 16.4961H5.10738L6.95587 10.1532L4.05732 2.28882e-05H8.32436L9.899 7.27879L15.4202 2.28882e-05H19.9833L11.1764 10.4503Z" fill="white"/>
<path d="M28.0605 7.87096C28.0605 8.16061 28.0187 8.48739 27.9351 8.85321C27.8515 9.2171 27.7559 9.58292 27.6501 9.94874L26.692 13.2558C26.6 13.5919 26.5128 13.8908 26.4292 14.1582C26.3456 14.4237 26.2695 14.6782 26.2008 14.9213C26.133 15.1664 26.0754 15.4134 26.03 15.664C25.9845 15.9146 25.939 16.1913 25.8934 16.4959H22.151C22.1659 16.3288 22.1769 16.1839 22.1853 16.0632C22.1927 15.9407 22.2039 15.8237 22.2196 15.7086C22.2345 15.5953 22.2539 15.4728 22.2762 15.3447C22.2995 15.2147 22.3338 15.0588 22.3792 14.8768C21.8008 15.5768 21.1583 16.0633 20.451 16.3362C19.7435 16.611 19.01 16.7466 18.2498 16.7466C17.8385 16.7466 17.4281 16.6946 17.0168 16.5869C16.6064 16.4811 16.2379 16.3103 15.9111 16.0744C15.5834 15.8386 15.3178 15.5267 15.1118 15.1385C14.9066 14.7505 14.8045 14.2751 14.8045 13.7125C14.8045 12.7395 15.07 11.9597 15.603 11.3748C16.135 10.788 16.8349 10.3405 17.702 10.0286C18.5692 9.71676 19.5496 9.51432 20.6452 9.42325C21.7407 9.33218 22.8585 9.28582 23.9996 9.28582L24.1138 8.89778C24.1593 8.73066 24.201 8.571 24.2392 8.41866C24.2763 8.26825 24.2958 8.11604 24.2958 7.9637C24.2958 7.58311 24.1965 7.26738 23.9996 7.01678C23.8018 6.76425 23.4137 6.63978 22.8353 6.63978C22.2727 6.63978 21.8318 6.78827 21.5123 7.08358C21.193 7.38068 20.9572 7.77244 20.8048 8.259H16.926C17.0634 7.57566 17.3326 7.0038 17.7365 6.54884C18.1394 6.09208 18.6185 5.72254 19.1737 5.44214C19.7288 5.15994 20.3408 4.96303 21.0101 4.84794C21.6794 4.73464 22.3562 4.6771 23.0415 4.6771C23.7406 4.6771 24.3951 4.72719 25.0033 4.82558C25.6115 4.92397 26.1443 5.09481 26.6002 5.33809C27.0569 5.58317 27.4144 5.90995 27.6724 6.32034C27.9315 6.73073 28.0605 7.24889 28.0605 7.87096ZM23.4519 11.0202C22.7973 11.0202 22.1438 11.0556 21.4892 11.1224C20.8357 11.1911 20.2804 11.3323 19.8236 11.5457C19.4736 11.7128 19.1923 11.9412 18.9797 12.2291C18.7662 12.5187 18.6604 12.8604 18.6604 13.2559C18.6604 13.7275 18.8005 14.071 19.0829 14.2827C19.3642 14.4962 19.7328 14.602 20.1896 14.602C20.5693 14.602 20.9156 14.5259 21.2276 14.3736C21.5385 14.2232 21.8162 14.0208 22.0603 13.7702C22.3036 13.5195 22.5162 13.2335 22.6991 12.9142C22.882 12.5949 23.0333 12.2754 23.1549 11.9561C23.2013 11.8336 23.2579 11.6627 23.3267 11.4418C23.3945 11.2227 23.4361 11.0815 23.4519 11.0202Z" fill="white"/>
<path d="M41.1344 7.64461C41.1344 7.78012 41.1307 7.90638 41.1223 8.01967C41.1149 8.13476 41.0964 8.26848 41.0657 8.41889H37.3241C37.3993 8.19051 37.4374 7.99373 37.4374 7.82662C37.4374 7.49239 37.3046 7.21392 37.0382 6.99286C36.7727 6.77373 36.3957 6.66236 35.9093 6.66236C35.4376 6.66236 35.0153 6.77373 34.6429 6.99286C34.2696 7.21379 34.084 7.55174 34.084 8.0085C34.084 8.38909 34.2511 8.68619 34.5854 8.89787C34.9205 9.11135 35.3383 9.28591 35.8406 9.42335L37.0503 9.76503C37.43 9.87267 37.7986 9.99713 38.157 10.142C38.5136 10.2869 38.8301 10.4725 39.103 10.7009C39.3769 10.9293 39.5978 11.2004 39.765 11.5105C39.9321 11.8225 40.0167 12.2068 40.0167 12.6636C40.0167 13.5307 39.8142 14.2308 39.4113 14.7618C39.0083 15.2947 38.4987 15.7087 37.8831 16.0058C37.2667 16.3029 36.5935 16.4997 35.8638 16.6C35.1332 16.6984 34.4332 16.7467 33.7647 16.7467C33.1714 16.7467 32.5662 16.6947 31.9506 16.587C31.3342 16.4812 30.7789 16.3029 30.2851 16.0523C29.7903 15.7998 29.3873 15.4785 29.0753 15.0812C28.7644 14.6857 28.6083 14.1992 28.6083 13.6218C28.6083 13.516 28.612 13.3934 28.6195 13.256C28.6269 13.1205 28.6464 12.9905 28.6761 12.8679H32.5328C32.5021 13.0202 32.4827 13.1391 32.4752 13.2226C32.4678 13.3061 32.464 13.3934 32.464 13.4844C32.464 13.8799 32.6274 14.1881 32.9542 14.4091C33.281 14.63 33.7034 14.7396 34.2206 14.7396C34.4184 14.7396 34.6319 14.7209 34.8593 14.682C35.0877 14.6449 35.3049 14.5724 35.5102 14.4666C35.7153 14.359 35.8862 14.2141 36.0236 14.0321C36.1601 13.8501 36.2287 13.6217 36.2287 13.3487C36.2287 12.892 36.0495 12.554 35.6921 12.3331C35.3346 12.1122 34.8741 11.919 34.3124 11.7501L33.1259 11.4084C32.7295 11.3025 32.3646 11.1688 32.0304 11.0092C31.6953 10.8495 31.4065 10.66 31.1633 10.4391C30.92 10.2182 30.7297 9.95628 30.5932 9.65186C30.4558 9.34731 30.387 8.98149 30.387 8.55633C30.387 7.82662 30.5783 7.21379 30.9589 6.7199C31.3405 6.22602 31.8241 5.83053 32.4109 5.53343C32.9976 5.23633 33.6419 5.02837 34.3429 4.90583C35.0438 4.78329 35.7225 4.72382 36.378 4.72382C36.9573 4.72382 37.5293 4.77585 38.0928 4.88349C38.6573 4.98933 39.1633 5.16016 39.6135 5.39599C40.0628 5.63182 40.4286 5.93638 40.7108 6.30952C40.993 6.68086 41.1344 7.12657 41.1344 7.64461Z" fill="white"/>
<path d="M55.508 9.104C55.508 10.0008 55.352 10.8495 55.04 11.6479C54.728 12.4463 54.352 13.1798 53.9111 13.8502C53.2723 14.7786 52.3931 15.4898 51.2753 15.9837C50.1576 16.4776 48.906 16.7246 47.5217 16.7246C46.5329 16.7246 45.6778 16.615 44.9556 16.3941C44.2323 16.1731 43.6354 15.8686 43.1637 15.4806C42.6921 15.0943 42.3383 14.6264 42.1035 14.0787C41.8668 13.531 41.7498 12.9368 41.7498 12.298C41.7498 11.0966 41.9735 10.016 42.4228 9.05788C42.8712 8.09979 43.483 7.27901 44.2592 6.59387C44.989 5.94033 45.8487 5.46866 46.8375 5.17901C47.8262 4.89116 48.8836 4.7464 50.009 4.7464C51.7887 4.7464 53.1498 5.13817 54.0931 5.92183C55.0364 6.70549 55.508 7.76532 55.508 9.104ZM51.5836 8.78468C51.5836 8.17557 51.4277 7.6966 51.1157 7.34747C50.8037 6.99655 50.2755 6.82199 49.53 6.82199C48.9219 6.82199 48.4011 6.97421 47.9674 7.27876C47.5338 7.58331 47.1644 8.00102 46.8607 8.53395C46.6472 8.88307 46.4615 9.27111 46.3018 9.69627C46.1422 10.1234 46.0085 10.5485 45.9026 10.9756C45.8255 11.3098 45.7689 11.6292 45.7309 11.9337C45.6929 12.2383 45.6742 12.5187 45.6742 12.7767C45.6742 13.356 45.8525 13.8073 46.21 14.134C46.5675 14.4627 47.0734 14.6261 47.728 14.6261C48.4122 14.6261 48.9944 14.42 49.4735 14.0097C49.9526 13.5994 50.3211 13.0813 50.5802 12.4574C50.7473 12.0935 50.8764 11.789 50.9673 11.5457C51.0593 11.3024 51.1428 11.0424 51.2189 10.7695C51.3406 10.374 51.4315 10.0156 51.4928 9.69627C51.5532 9.37695 51.5836 9.07433 51.5836 8.78468Z" fill="white"/>
<path d="M59.8894 16.4961H55.8963L60.6656 0H64.6577L59.8894 16.4961ZM65.846 10.3128L68.6981 16.4961H64.2937L61.8984 9.90244L67.0529 4.99676H71.914L65.846 10.3128Z" fill="white"/>
<path d="M82.9345 14.0321C82.7062 14.8083 82.5 15.6289 82.3181 16.4961H78.3018L78.6676 15.0812C78.1347 15.5845 77.5572 15.98 76.9333 16.2677C76.3094 16.5574 75.5872 16.7022 74.7664 16.7022C73.5334 16.7022 72.6291 16.4126 72.0518 15.8351C71.4725 15.2576 71.1846 14.4425 71.1846 13.3934C71.1846 13.1056 71.2255 12.7472 71.3091 12.322C71.3927 11.895 71.4948 11.4846 71.6174 11.0891L73.3739 4.99678H77.3438L75.5873 11.1113C75.4964 11.4306 75.4165 11.7463 75.3477 12.0582C75.279 12.3701 75.2456 12.6487 75.2456 12.892C75.2456 13.3024 75.3515 13.644 75.565 13.9188C75.7766 14.1917 76.1721 14.3292 76.7514 14.3292C77.2231 14.3292 77.6298 14.227 77.9713 14.0209C78.3148 13.8147 78.6026 13.553 78.8385 13.2336C79.0743 12.9143 79.2636 12.5652 79.4085 12.1845C79.5534 11.8038 79.6797 11.4399 79.7855 11.0889L81.542 4.99665H85.5583L82.9345 14.0321Z" fill="white"/>
<path d="M8.96236 19.5153C9.35875 19.5153 9.73947 19.5655 10.095 19.6639C10.4938 19.7749 10.8432 19.9687 11.1324 20.2396C11.3521 20.4405 11.5314 20.6971 11.6646 20.994L18.5767 20.7558L18.937 19.5151H22.0385L21.7056 20.6479L25.2709 20.5251L25.5602 19.5151H31.7731L31.5416 20.3089L37.0041 20.1208L37.1774 19.5151H40.2763L40.1327 20.0129L43.6444 19.8919L43.7541 19.5151H46.8937L46.8157 19.7827L81.6475 18.5823H4.5318L0.621582 32L3.01534 27.9919L5.47769 19.5153H8.96236Z" fill="white"/>
<path d="M11.2333 22.0589C11.2333 22.5394 11.1348 22.958 10.9382 23.3147C10.7415 23.6718 10.4728 23.9568 10.1328 24.1707C9.8592 24.3441 9.55902 24.4707 9.23212 24.5506C8.90509 24.6309 8.56843 24.6707 8.22149 24.6707H6.54024L5.75966 27.3928H3.8585L5.96004 20.1578H8.96225C9.30225 20.1578 9.62273 20.1993 9.92279 20.2828C10.2228 20.3663 10.4799 20.508 10.6932 20.708C10.8602 20.8615 10.9917 21.05 11.0886 21.2735C11.185 21.497 11.2333 21.7588 11.2333 22.0589ZM9.42222 22.1989C9.42222 21.9122 9.33064 21.7037 9.14696 21.5735C8.96328 21.4436 8.72514 21.3785 8.4315 21.3785H7.49088L6.89026 23.4699H7.99131C8.3782 23.4699 8.69495 23.3766 8.9417 23.1897C9.08184 23.083 9.19706 22.9446 9.28697 22.7744C9.37688 22.6042 9.42222 22.4126 9.42222 22.1989Z" fill="white"/>
<path d="M16.2869 26.312C16.1867 26.652 16.0967 27.0124 16.0165 27.3926H14.2553L14.4154 26.7721C14.1816 26.9923 13.9284 27.1658 13.6547 27.2924C13.381 27.4191 13.0642 27.4825 12.7043 27.4825C12.1635 27.4825 11.7669 27.3559 11.5132 27.1022C11.2595 26.8489 11.1329 26.4918 11.1329 26.0317C11.1329 25.905 11.1512 25.7478 11.1878 25.5614C11.2245 25.3745 11.2697 25.1946 11.323 25.0207L12.0934 22.3491H13.8349L13.0641 25.0308C13.0241 25.171 12.9892 25.3093 12.959 25.4461C12.9293 25.5829 12.9142 25.7047 12.9142 25.8114C12.9142 25.9914 12.9606 26.1416 13.0543 26.2617C13.1476 26.3818 13.321 26.4417 13.5747 26.4417C13.7811 26.4417 13.9599 26.3969 14.1102 26.3069C14.2601 26.2165 14.3866 26.1017 14.4901 25.9617C14.5936 25.8217 14.677 25.6681 14.7406 25.5012C14.8037 25.3346 14.8586 25.1747 14.9055 25.0207L15.6763 22.3491H17.4375L16.2869 26.312Z" fill="white"/>
<path d="M23.7923 24.0505C23.7923 24.2505 23.774 24.459 23.7374 24.6759C23.7008 24.8925 23.6458 25.1113 23.5721 25.3312C23.4987 25.5514 23.4088 25.7631 23.3021 25.9668C23.1953 26.1706 23.072 26.3557 22.9319 26.5223C22.6448 26.8757 22.3329 27.1261 21.9961 27.2726C21.659 27.4192 21.2771 27.4929 20.8502 27.4929C20.6833 27.4929 20.5217 27.4794 20.3648 27.4526C20.2081 27.4261 20.0611 27.3777 19.9243 27.3076C19.7875 27.2375 19.6625 27.1475 19.5492 27.0376C19.4356 26.9273 19.3391 26.7856 19.2589 26.612L19.0386 27.3926H17.2975C17.3309 27.2994 17.3643 27.196 17.3977 27.0823C17.4311 26.9691 17.4662 26.8571 17.5028 26.7472C17.5394 26.6372 17.5728 26.5306 17.6029 26.4267C17.6331 26.3237 17.6579 26.2317 17.6778 26.1518L19.4189 20.1575H21.1805L20.3697 22.913C20.6499 22.6422 20.93 22.4619 21.2102 22.3726C21.4907 22.2835 21.7541 22.2386 22.0009 22.2386C22.3279 22.2386 22.6047 22.2923 22.8316 22.3991C23.0584 22.5058 23.2432 22.6442 23.387 22.814C23.5303 22.9842 23.6337 23.178 23.6973 23.3947C23.7604 23.6112 23.7923 23.8302 23.7923 24.0505ZM21.991 24.2532C21.991 24.1262 21.9796 24.004 21.9559 23.8871C21.9327 23.7699 21.8912 23.6665 21.8309 23.576C21.7711 23.4856 21.6876 23.4136 21.581 23.3603C21.4742 23.3066 21.3339 23.2796 21.1607 23.2796C20.9205 23.2796 20.6884 23.3618 20.4652 23.5256C20.2411 23.6897 20.0629 23.9523 19.9297 24.3135C19.843 24.5276 19.7696 24.752 19.7094 24.9861C19.6495 25.2203 19.6193 25.4548 19.6193 25.689C19.6193 25.9031 19.6942 26.0954 19.8445 26.266C19.9944 26.437 20.2098 26.5221 20.4899 26.5221C20.7033 26.5221 20.8951 26.4651 21.0653 26.3515C21.2355 26.2375 21.3805 26.084 21.5006 25.8898C21.6606 25.6357 21.7824 25.3592 21.8659 25.0615C21.9494 24.7639 21.991 24.4943 21.991 24.2532Z" fill="white"/>
<path d="M25.7138 27.3928H23.9723L26.0441 20.1578H27.795L25.7138 27.3928Z" fill="white"/>
<path d="M28.8059 27.3928H27.0644L28.5156 22.3493H30.2567L28.8059 27.3928ZM30.547 21.4286H28.7456L29.1158 20.1577H30.9172L30.547 21.4286Z" fill="white"/>
<path d="M35.6203 23.5101C35.6203 23.57 35.6187 23.6249 35.6151 23.675C35.6119 23.7251 35.6036 23.7837 35.5903 23.8501H33.9494C33.9824 23.7499 33.9991 23.6636 33.9991 23.5899C33.9991 23.4433 33.9409 23.3216 33.824 23.2246C33.7075 23.1281 33.5422 23.0796 33.3288 23.0796C33.122 23.0796 32.9367 23.128 32.7734 23.2246C32.6098 23.3214 32.5283 23.4696 32.5283 23.67C32.5283 23.8366 32.6017 23.9669 32.7482 24.0601C32.8952 24.1538 33.0785 24.2303 33.2988 24.2902L33.8294 24.4405C33.996 24.4873 34.1576 24.5423 34.3148 24.6058C34.4711 24.6688 34.61 24.7508 34.7297 24.8509C34.8498 24.9507 34.9468 25.0695 35.02 25.2059C35.0933 25.3427 35.1303 25.5113 35.1303 25.7112C35.1303 26.0915 35.0416 26.3985 34.8648 26.6319C34.6881 26.8657 34.4646 27.0472 34.1946 27.1776C33.9242 27.3074 33.629 27.3941 33.3089 27.4378C32.9884 27.481 32.6815 27.5025 32.3882 27.5025C32.128 27.5025 31.8625 27.4793 31.5926 27.4325C31.3222 27.3862 31.0787 27.3075 30.8621 27.1976C30.645 27.0873 30.4684 26.946 30.3315 26.772C30.1951 26.5986 30.1266 26.3852 30.1266 26.1315C30.1266 26.0851 30.1283 26.0317 30.1315 25.9714C30.1347 25.9116 30.1433 25.8549 30.1563 25.8012H31.8478C31.8343 25.868 31.8259 25.9197 31.8225 25.9564C31.8193 25.9934 31.8176 26.0317 31.8176 26.0716C31.8176 26.245 31.8893 26.3803 32.0327 26.4767C32.176 26.5736 32.3612 26.6221 32.5881 26.6221C32.6748 26.6221 32.7684 26.6135 32.8682 26.5968C32.9684 26.5805 33.0637 26.5488 33.1536 26.5019C33.2435 26.455 33.3186 26.3916 33.3788 26.3118C33.4387 26.2315 33.4688 26.1315 33.4688 26.0118C33.4688 25.8114 33.3902 25.6632 33.2335 25.5663C33.0768 25.4698 32.8748 25.3847 32.6284 25.311L32.1081 25.1611C31.9341 25.1142 31.7742 25.056 31.6275 24.9856C31.4806 24.9156 31.3539 24.8325 31.2472 24.7356C31.1405 24.6392 31.0571 24.524 30.9972 24.3904C30.937 24.2572 30.9068 24.0967 30.9068 23.9102C30.9068 23.5898 30.9907 23.3214 31.1577 23.1043C31.325 22.8878 31.5372 22.7142 31.7945 22.584C32.0518 22.4541 32.3345 22.3624 32.6419 22.3087C32.9493 22.2554 33.247 22.229 33.5345 22.229C33.7886 22.229 34.0394 22.2522 34.2865 22.299C34.5341 22.3459 34.756 22.4207 34.9536 22.5241C35.1506 22.6275 35.311 22.7611 35.4349 22.9244C35.5587 23.0876 35.6203 23.2833 35.6203 23.5101Z" fill="white"/>
<path d="M41.8945 23.6999C41.8945 23.827 41.8761 23.9853 41.8399 24.1756C41.8033 24.3657 41.7585 24.5473 41.7055 24.7208L40.9392 27.3928H39.1826L39.9631 24.7111C40.0031 24.5709 40.038 24.4358 40.0682 24.3056C40.0984 24.1757 40.1134 24.0539 40.1134 23.9403C40.1134 23.7603 40.0597 23.6083 39.9534 23.485C39.8463 23.3616 39.6798 23.2998 39.4529 23.2998C39.2392 23.2998 39.0593 23.345 38.9126 23.4349C38.7656 23.525 38.6405 23.6402 38.5371 23.7802C38.4337 23.9202 38.3486 24.0738 38.2818 24.2407C38.215 24.4073 38.1583 24.5677 38.1119 24.7208L37.3411 27.3928H35.5897L37.6615 20.1578H39.4226L38.6119 22.9694C38.8456 22.7495 39.1005 22.5761 39.3774 22.4491C39.6544 22.3224 39.9728 22.2594 40.3319 22.2594C40.8429 22.2594 41.2311 22.3844 41.4964 22.6344C41.7615 22.8849 41.8945 23.2398 41.8945 23.6999Z" fill="white"/>
<path d="M43.9264 27.3928H42.1849L43.6361 22.3493H45.3773L43.9264 27.3928ZM45.6675 21.4286H43.8662L44.2364 20.1577H46.0377L45.6675 21.4286Z" fill="white"/>
<path d="M51.6015 23.6999C51.6015 23.827 51.5831 23.9853 51.5469 24.1756C51.5103 24.3657 51.4654 24.5473 51.4125 24.7208L50.6462 27.3928H48.8895L49.6701 24.7111C49.7101 24.5709 49.745 24.4358 49.7752 24.3056C49.8054 24.1757 49.8204 24.0539 49.8204 23.9403C49.8204 23.7603 49.7667 23.6084 49.6604 23.485C49.5532 23.3616 49.3868 23.2998 49.1599 23.2998C48.9462 23.2998 48.7662 23.345 48.6196 23.4349C48.4726 23.525 48.3475 23.6402 48.2441 23.7802C48.1407 23.9202 48.0555 24.0739 47.9887 24.2407C47.9219 24.4073 47.8653 24.5677 47.8189 24.7208L47.0481 27.3928H45.2967L46.4377 23.4198C46.491 23.2464 46.5411 23.0732 46.588 22.8994C46.6344 22.7264 46.6781 22.5427 46.7179 22.3493H48.4693L48.319 22.9695C48.5528 22.7496 48.8076 22.5761 49.0845 22.4491C49.3615 22.3225 49.6799 22.2594 50.039 22.2594C50.55 22.2594 50.9382 22.3844 51.2035 22.6345C51.4687 22.8849 51.6015 23.2398 51.6015 23.6999Z" fill="white"/>
<path d="M57.4255 26.8222C57.2521 27.4029 57.0651 27.8614 56.8652 28.1982C56.6648 28.5353 56.4312 28.7902 56.1644 28.9637C55.8976 29.1372 55.5955 29.2476 55.2588 29.294C54.9221 29.3408 54.5332 29.364 54.0931 29.364C53.8728 29.364 53.6277 29.3456 53.3577 29.309C53.0873 29.2724 52.8336 29.2022 52.597 29.0988C52.36 28.9954 52.1617 28.8538 52.0017 28.6737C51.8416 28.4933 51.7615 28.2599 51.7615 27.9729C51.7615 27.8995 51.7716 27.8063 51.7916 27.6927H53.4929C53.486 27.7261 53.4828 27.7595 53.4828 27.7929V27.8931C53.4828 28.0665 53.5561 28.1965 53.7031 28.2832C53.8496 28.3699 54.0264 28.4134 54.2332 28.4134C54.4535 28.4134 54.6368 28.3797 54.7837 28.3129C54.9303 28.2457 55.052 28.1569 55.149 28.047C55.2455 27.9363 55.3224 27.8059 55.3791 27.6552C55.4357 27.5045 55.4907 27.3454 55.5444 27.178L55.7044 26.6356C55.4976 26.8245 55.2773 26.9793 55.044 27.1006C54.8102 27.222 54.5199 27.2826 54.1733 27.2826C53.8932 27.2826 53.6378 27.2374 53.4078 27.1475C53.1774 27.0574 52.979 26.9288 52.812 26.7622C52.6454 26.5953 52.5169 26.3986 52.4268 26.1718C52.3368 25.9449 52.2917 25.6912 52.2917 25.4111C52.2917 24.9306 52.387 24.4721 52.5771 24.0352C52.7672 23.5982 53.0258 23.2293 53.3528 22.9292C53.5926 22.7089 53.8594 22.5391 54.1533 22.419C54.4464 22.2989 54.7637 22.2387 55.1037 22.2387C55.4775 22.2387 55.8109 22.3023 56.1045 22.4288C56.3982 22.5558 56.6115 22.7725 56.7451 23.0795L56.965 22.349H58.7266L57.4255 26.8222ZM56.3847 24.0575C56.3847 23.825 56.3179 23.6271 56.1847 23.4642C56.0511 23.3013 55.8374 23.2199 55.5441 23.2199C55.3304 23.2199 55.1418 23.2717 54.9786 23.3747C54.8149 23.4777 54.6699 23.6154 54.5433 23.7884C54.3898 24.0014 54.2733 24.2425 54.1931 24.5116C54.113 24.7807 54.073 25.0417 54.073 25.2946C54.073 25.4143 54.0897 25.5324 54.1231 25.6485C54.1565 25.765 54.2098 25.8663 54.2832 25.9526C54.3565 26.0393 54.4517 26.109 54.5682 26.1624C54.6851 26.2153 54.8267 26.2422 54.9937 26.2422C55.247 26.2422 55.4624 26.1656 55.6392 26.0125C55.8159 25.8598 55.9608 25.6571 56.0745 25.4042C56.1612 25.218 56.2345 25.0002 56.2948 24.751C56.3546 24.5014 56.3847 24.2705 56.3847 24.0575Z" fill="white"/>
</svg>
